<svg width="80" height="80" viewBox="0 0 80 80" fill="none" xmlns="http://www.w3.org/2000/svg">
<g clip-path="url(#clip0_312_54)">
<path d="M40 80C62.0914 80 80 62.0914 80 40C80 17.9086 62.0914 0 40 0C17.9086 0 0 17.9086 0 40C0 62.0914 17.9086 80 40 80Z" fill="#21362C"/>
<path d="M35.1275 28.27L35.9375 25.745C34.77 26.13 33.51 26.555 32.3125 26.9775C32.615 27.525 32.965 28.165 33.3225 28.84L35.1275 28.27Z" fill="#F4DBB2"/>
<path d="M34.0728 31.7675L37.6128 30.65C37.9328 29.61 38.3078 28.41 38.7028 27.205L35.1778 28.3175L34.0728 31.7675Z" fill="#F4DBB2"/>
<path d="M37.6274 33.3375C37.6199 33.365 37.6124 33.3925 37.6049 33.4175C37.5674 33.545 37.5349 33.655 37.5074 33.7475C37.4799 33.8425 37.4549 33.925 37.4324 33.9975C37.4274 34.02 37.4199 34.04 37.4149 34.06C37.3749 34.17 37.2849 34.26 37.1624 34.2975L36.9874 34.3525L26.0449 37.7575L26.9974 38.07L27.1474 38.025L29.8274 37.2L37.6624 34.785L37.9574 34.695L38.2649 34.6C38.2874 34.5175 38.3149 34.4125 38.3474 34.2875C38.4649 33.8425 38.6499 33.1525 38.8624 32.365C38.9274 32.1225 38.9974 31.87 39.0674 31.6125C39.2374 30.995 39.4174 30.3475 39.5924 29.7275C39.6349 29.58 39.6749 29.435 39.7174 29.2925C39.9724 28.41 40.2099 27.6175 40.3924 27.0925C40.4399 26.9575 40.5574 26.8575 40.6999 26.8325C40.8424 26.8075 40.9849 26.8625 41.0749 26.9775L42.1799 28.3775C42.2149 28.345 42.2499 28.3125 42.2849 28.2775C42.4524 28.11 42.6224 27.9525 42.7949 27.8C42.4249 27.33 41.3849 26.015 40.3699 24.7625C40.3599 24.7875 40.3524 24.8125 40.3424 24.8375C40.3124 24.9175 40.2849 25 40.2549 25.0825C40.1974 25.245 40.1399 25.41 40.0824 25.5775C40.0449 25.685 40.0074 25.795 39.9699 25.9025C39.9699 25.905 39.9699 25.91 39.9674 25.9125C39.0474 28.5975 38.0949 31.755 37.6299 33.3275C37.6299 33.3325 37.6274 33.3375 37.6249 33.3425L37.6274 33.3375Z" fill="#F4DBB2"/>
<path d="M29.7051 33.2075L28.7676 36.0825L33.0526 34.75L33.9776 31.86L29.7051 33.2075Z" fill="#F4DBB2"/>
<path d="M29.4999 26.235C29.6124 26.42 29.5549 26.6625 29.3699 26.7775C29.3399 26.795 29.2549 26.8475 29.1274 26.9125C29.1899 27.005 29.2624 27.1125 29.3449 27.2325C29.4774 27.43 29.6324 27.6575 29.7999 27.9025C30.1399 28.4025 30.5249 28.9675 30.8649 29.465C30.8799 29.485 30.8924 29.5075 30.9074 29.5275C30.9224 29.5475 30.9349 29.5675 30.9499 29.59C30.9624 29.6075 30.9749 29.625 30.9849 29.6425C31.2124 29.9725 31.4124 30.2625 31.5524 30.465C31.7949 30.81 32.2899 30.6425 32.5174 30.5025C32.7249 30.3775 33.0724 30.0575 32.9124 29.75C32.8049 29.5425 32.6974 29.34 32.5899 29.1375C32.5799 29.12 32.5699 29.1 32.5599 29.0825C32.2249 28.455 31.9024 27.86 31.6174 27.3475C31.6049 27.3225 31.5899 27.3 31.5774 27.275C31.5724 27.265 31.5674 27.2575 31.5624 27.2475C31.4199 26.9925 31.2899 26.7575 31.1724 26.55C31.0349 26.305 30.9174 26.1 30.8299 25.945C30.6524 26.0625 30.5149 26.135 30.4749 26.1575C30.4199 26.185 30.3624 26.2 30.3049 26.2025C30.1574 26.2075 30.0149 26.1275 29.9424 25.99C29.8424 25.7975 29.9174 25.56 30.1124 25.46C30.2424 25.3925 30.4749 25.2525 30.7024 25.0675C30.9599 24.86 31.2124 24.6 31.2974 24.3375C31.5074 23.6825 31.5449 23.26 30.9599 22.21C30.6274 21.6125 30.1924 21.2325 29.6674 21.085C28.9974 20.8975 28.1674 21.08 27.2024 21.6275C27.1874 21.635 27.1724 21.6425 27.1574 21.65C27.1449 21.66 27.1299 21.67 27.1149 21.6775C26.1699 22.2075 25.5999 22.8025 25.4224 23.4475C25.2799 23.965 25.3849 24.54 25.7374 25.155C26.3324 26.195 26.7149 26.385 27.3849 26.5425C27.6799 26.6125 28.0724 26.51 28.4024 26.38C28.6424 26.285 28.8474 26.1775 28.9599 26.11C29.1449 25.9975 29.3874 26.055 29.5024 26.24L29.4999 26.235ZM28.7149 24.345C28.6999 24.3575 28.6849 24.3675 28.6674 24.3775C28.1074 24.6925 27.6324 24.855 27.2299 24.8675C27.0399 24.8725 26.8674 24.845 26.7074 24.785C26.3874 24.66 26.1549 24.405 26.0349 24.0475C25.8399 23.455 26.3149 22.9325 26.3699 22.875C26.5199 22.7175 26.7699 22.71 26.9274 22.86C27.0849 23.01 27.0924 23.2575 26.9424 23.415C26.8674 23.495 26.7474 23.69 26.7824 23.7975C26.8399 23.9725 26.9274 24.025 26.9899 24.0475C27.0399 24.0675 27.1324 24.0875 27.2849 24.07C27.4049 23.81 27.6524 23.4375 28.1549 23.155C28.6074 22.9 29.0124 22.8525 29.2949 22.865C29.3324 22.8 29.3474 22.7475 29.3524 22.7125C29.3649 22.6475 29.3649 22.545 29.2449 22.405C29.1674 22.315 28.9249 22.3225 28.8374 22.3425C28.6249 22.39 28.4149 22.255 28.3674 22.0425C28.3199 21.83 28.4549 21.62 28.6674 21.5725C28.7449 21.555 29.4399 21.42 29.8449 21.8925C30.0924 22.18 30.1899 22.51 30.1299 22.85C30.0374 23.3725 29.5924 23.8525 28.7674 24.3175C28.7499 24.3275 28.7324 24.335 28.7149 24.3425V24.345Z" fill="#F4DBB2"/>
<path d="M30.5549 30.4075C30.4449 30.2475 30.3249 30.0725 30.1974 29.8875L27.7024 30.675C27.2824 31.76 26.8024 33.0275 26.3799 34.1925L29.6574 33.1575L30.5549 30.4075Z" fill="#F4DBB2"/>
<path d="M23.3973 42.6925C24.4648 42.915 25.2148 43.5775 25.5698 44.6075C26.5423 44.465 27.4773 44.0775 28.2498 43.4675C30.4748 41.715 29.9573 39.0125 29.6848 38.0625L27.7323 38.665C27.8323 39.2175 27.9173 40.275 27.4173 41.32C26.9173 42.3625 25.9948 42.655 25.3523 42.675C25.2048 42.68 25.0698 42.67 24.9623 42.65C24.7473 42.6125 24.6048 42.4075 24.6423 42.1925C24.6798 41.9775 24.8848 41.835 25.0998 41.8725C25.1423 41.88 26.1998 42.0375 26.7073 40.98C27.0948 40.1675 27.0448 39.3325 26.9698 38.875C26.9348 38.875 26.9023 38.8675 26.8698 38.8575L24.7898 38.175C24.6798 38.1425 24.5873 38.07 24.5323 37.965C24.4173 37.75 24.2973 37.525 25.9848 32.9825C26.0298 32.865 26.0723 32.745 26.1173 32.625C25.5373 32.72 24.3298 33.075 23.5848 34.4325C22.5773 36.2725 23.5698 38.1 24.0473 38.9775L24.0523 38.9875C24.3098 39.46 24.3298 39.9625 24.1098 40.3975C23.8623 40.89 23.3348 41.2375 22.6998 41.3275C22.1748 41.4 21.6273 41.1525 21.2323 40.66C20.9498 40.31 20.7823 39.8825 20.7373 39.4425C20.3448 39.9325 20.0048 40.7825 20.4698 42.14C20.6048 42.5325 20.8198 42.895 21.1048 43.215C21.7848 42.7275 22.5998 42.5325 23.3948 42.6975L23.3973 42.6925Z" fill="#F4DBB2"/>
<path d="M38.825 38.7325C38.07 40.2325 35.8975 41.0325 35.8975 41.0325C37.515 41.36 37.895 43.28 37.895 43.28C38.81 41.3625 40.8275 40.8875 40.8275 40.8875C38.85 40.3275 38.8225 38.73 38.8225 38.73L38.825 38.7325Z" fill="#F4DBB2"/>
<path d="M46.6802 33.5975C45.6627 35.06 44.3927 35.8825 42.9727 36.05C43.3677 36.44 43.7177 36.89 44.0102 37.39C44.8627 35.6725 46.3752 34.4475 48.1577 34.2C47.6902 33.985 47.1802 33.765 46.6827 33.5875C46.6827 33.5875 46.6777 33.5925 46.6777 33.595L46.6802 33.5975Z" fill="#F4DBB2"/>
<path d="M36.0225 51.4825C37.4975 52.6075 39.0275 53.3275 40.5175 53.74L41.0625 50.9825C39.4425 50.52 38.1875 49.8275 37.655 49.5025C37.565 49.71 37.455 49.915 37.33 50.115C36.99 50.6475 36.5475 51.11 36.025 51.48L36.0225 51.4825Z" fill="#F4DBB2"/>
<path d="M44.6377 43.3675C44.8002 43.7275 44.9927 44.0625 45.2127 44.3725C45.4427 44.21 45.6777 44.0775 45.9202 43.9775C45.4802 43.5 45.1302 42.9075 44.9052 42.2375C44.8452 42.6275 44.7552 43.005 44.6377 43.3675Z" fill="#F4DBB2"/>
<path d="M41.7199 36.0325C41.0049 35.935 40.2599 35.685 39.5024 35.2825C39.4049 35.2775 39.3099 35.2775 39.2124 35.2825C38.8449 35.2925 38.4874 35.3525 38.1449 35.4575C38.1349 35.46 38.1224 35.465 38.1124 35.4675C37.4324 35.68 36.8149 36.065 36.2899 36.5825C36.1149 36.705 35.9649 36.87 35.8549 37.0675C35.0124 38.1325 34.5149 39.585 34.5599 41.17C34.5899 42.2075 34.8499 43.1775 35.2824 44.0075C36.0649 44.2275 36.7399 44.7525 37.2899 45.58C37.4674 45.845 37.6099 46.1225 37.7224 46.405C38.2899 46.6625 38.9074 46.795 39.5499 46.775C41.4574 46.72 43.0724 45.3425 43.7974 43.4C43.9799 42.91 44.1074 42.3825 44.1649 41.8325C44.1974 41.525 44.2124 41.2125 44.2024 40.8925C44.1924 40.55 44.1574 40.2175 44.0999 39.895C44.0024 39.35 43.8424 38.8325 43.6249 38.3575C43.1874 37.3875 42.5249 36.5825 41.7224 36.0425L41.7199 36.0325ZM39.2674 45.4925C37.0924 45.555 35.2649 43.53 35.1924 40.9675C35.1649 40.025 35.3774 39.1425 35.7674 38.3975C35.9299 38.795 36.2599 39.1 36.6874 39.195C37.4099 39.355 38.1349 38.85 38.3074 38.07C38.4474 37.435 38.1824 36.8125 37.6899 36.515C38.0974 36.3325 38.5349 36.225 38.9974 36.21C41.1749 36.1475 42.9999 38.1725 43.0749 40.735C43.1499 43.2975 41.4449 45.4275 39.2699 45.49L39.2674 45.4925Z" fill="#F4DBB2"/>
<path d="M43.5776 45.4025C43.8401 45.3025 44.1801 45.13 44.5851 44.845C44.4651 44.6775 44.3526 44.505 44.2476 44.325C44.0551 44.71 43.8326 45.0725 43.5776 45.4025Z" fill="#F4DBB2"/>
<path d="M47.3251 43.005C48.2401 41.0875 50.2601 40.6125 50.2601 40.6125C48.2801 40.0525 48.2551 38.455 48.2551 38.455C47.5001 39.955 45.3276 40.755 45.3276 40.755C46.9451 41.0825 47.3251 43.0025 47.3251 43.0025V43.005Z" fill="#F4DBB2"/>
<path d="M51.795 49.48C51.79 49.1125 51.645 48.8575 51.3525 48.7C50.8175 48.4125 50.4875 48.66 49.72 49.3025C49.675 49.34 49.6325 49.375 49.585 49.415L50.425 51.955C51.33 51.0875 51.8025 50.1325 51.795 49.4825V49.48Z" fill="#F4DBB2"/>
<path d="M46.7324 51.05L47.0899 53.775C47.8474 53.5625 48.5124 53.285 49.0499 52.9775C49.3499 52.805 49.6274 52.62 49.8799 52.425L49.0324 49.8575C48.4524 50.2925 47.7274 50.7425 46.7349 51.05H46.7324Z" fill="#F4DBB2"/>
<path d="M40.5728 29.18C40.9028 29.14 41.2228 29.0425 41.5553 28.8475L40.9153 28.0375C40.8103 28.375 40.6928 28.765 40.5728 29.18Z" fill="#F4DBB2"/>
<path d="M57.1474 33.29C55.6424 33.5175 55.0149 34.3275 54.7749 34.7925C54.4949 35.3325 54.4474 35.95 54.6549 36.365C54.6624 36.38 54.6699 36.3975 54.6749 36.4125C54.7624 36.5475 54.8774 36.6825 55.0199 36.8275C55.7799 37.595 56.7574 37.235 57.0399 37.105C57.4349 36.925 57.7574 36.6475 57.9299 36.365L57.0249 35.4275C56.6324 35.9 56.1699 36.165 55.7724 36.125C55.5299 36.1 55.3399 35.9575 55.2624 35.745C55.1874 35.5375 55.1924 35.1975 55.6399 34.7475C56.1799 34.205 56.9524 34.0275 57.6574 34.285C58.3374 34.535 58.7949 35.13 58.8499 35.84C58.9099 36.58 58.2999 37.395 57.3674 37.82C56.9974 37.99 56.6174 38.0775 56.2499 38.0875C55.5774 38.1075 54.9399 37.865 54.4574 37.3775C54.2424 37.16 54.0774 36.95 53.9524 36.7425C53.3299 35.7025 53.7449 34.765 54.2149 33.7075C54.3749 33.345 54.5424 32.97 54.6924 32.5475C55.0274 31.61 54.9799 30.44 54.5649 29.4175C54.2224 28.575 53.4724 27.4275 51.8499 26.7625C48.6924 25.465 45.4924 26.1975 42.8424 28.8275C41.9224 29.7375 41.0749 29.9575 40.3399 29.985C40.1574 30.63 39.9699 31.305 39.7949 31.9425C40.7299 32.325 42.7024 32.7225 44.3999 30.365C45.6399 28.64 47.4699 27.78 49.4174 28.0075C51.1074 28.205 52.5674 29.2225 53.1399 30.6025C53.2224 30.8025 53.1274 31.035 52.9249 31.1175C52.7249 31.2 52.4924 31.105 52.4099 30.905C51.9474 29.785 50.7349 28.955 49.3249 28.79C47.6699 28.5975 46.1074 29.34 45.0374 30.825C43.8099 32.5325 42.4274 32.985 41.3574 33.0175C41.1949 33.0225 41.0424 33.0175 40.8974 33.005C40.3849 32.965 39.9374 32.8375 39.5874 32.7025C39.4324 33.2725 39.2974 33.785 39.1924 34.18C39.3724 34.2975 39.5499 34.405 39.7274 34.5025C40.5099 34.935 41.2649 35.1875 41.9824 35.26C43.5549 35.4175 44.9449 34.705 46.0349 33.14C46.0649 33.0975 46.0974 33.055 46.1274 33.0125C46.1949 32.9225 46.2649 32.835 46.3349 32.7525C47.2099 31.73 48.3249 31.3225 49.3924 31.66C50.6449 32.055 51.5049 33.375 51.5949 34.9925C52.8624 35.825 53.8349 37.2125 54.2599 38.8725C54.3674 38.91 54.4749 38.94 54.5824 38.9675C54.6999 38.9975 54.8199 39.02 54.9399 39.0375C55.9824 39.19 57.0749 38.91 58.0749 38.21C59.7374 37.045 59.9299 35.6275 59.5524 34.6875C59.1599 33.7075 58.1724 33.13 57.1474 33.285V33.29Z" fill="#F4DBB2"/>
<path d="M61.5625 33.8875C60.875 32.1675 59.1825 31.0475 57.355 31.1C57.265 31.1025 57.1725 31.1075 57.08 31.1175C57.07 30.2725 56.8975 29.415 56.57 28.6075C56.0725 27.38 54.99 25.7175 52.6725 24.765C51.315 24.2075 49.9275 23.945 48.5475 23.985C47.9 24.005 47.2475 24.09 46.61 24.2425C45.6 24.4825 44.6225 24.8825 43.695 25.4375C43.125 24.7175 42.345 23.7425 41.6225 22.86L41.555 22.7775L41.5425 22.7675L41.5325 22.755L41.4475 22.675C41.4275 22.6575 41.41 22.64 41.39 22.625L41.375 22.6125C41.3525 22.595 41.3325 22.58 41.315 22.565C41.2925 22.5475 41.2675 22.5275 41.235 22.5075C41.2175 22.495 41.2 22.485 41.1875 22.4775L41.1525 22.455L41.1325 22.44L41.03 22.39L41.01 22.38L40.98 22.3675C40.93 22.345 40.8875 22.3275 40.8575 22.3175L40.8 22.2975L40.7775 22.29C40.7575 22.2825 40.7375 22.2775 40.72 22.2725L40.705 22.2675L40.6825 22.2625C40.6625 22.2575 40.6425 22.2525 40.6225 22.2475H40.6125C40.6 22.2425 40.5875 22.24 40.575 22.2375L40.5425 22.23L40.5 22.225C40.475 22.2225 40.4425 22.2175 40.405 22.215H40.38L40.3575 22.21L40.265 22.205L40.125 22.21L40.075 22.215C40.06 22.215 40.045 22.2175 40.03 22.22H40.0175L39.9925 22.225L39.39 22.3825C38.5175 22.64 37.1525 23.0725 35.75 23.53C35 23.775 34.2575 24.0225 33.5375 24.2675C33.715 23.2425 33.5025 22.3325 32.85 21.1575C32.235 20.0525 31.3375 19.305 30.25 19C29.85 18.8875 29.4275 18.8375 28.995 18.85C28.0925 18.8775 27.13 19.1775 26.1325 19.745C26.1325 19.745 26.1025 19.7625 26.095 19.7675C26.08 19.775 26.0675 19.7825 26.0525 19.7925C24.5875 20.615 23.675 21.65 23.3375 22.87C23.0375 23.95 23.2175 25.1125 23.86 26.2325C24.55 27.435 25.2375 28.09 26.255 28.4625C26.025 29.0375 25.74 29.77 25.4375 30.5525C24.135 30.85 22.62 31.7025 21.6925 33.395C21.04 34.585 20.9125 35.7475 21.025 36.775C20.8475 36.7975 20.6775 36.845 20.515 36.92L20.505 36.925C20.2775 37.03 19.4875 37.445 18.86 38.35C18.3675 39.0625 17.655 40.5925 18.425 42.8425C18.535 43.1625 18.675 43.4725 18.845 43.765C18.085 45.155 17.7825 47.1725 18.9675 49.2125C19.865 50.7575 21.3075 51.6325 22.9375 51.62C23.3875 52.61 24.1275 53.935 25.2925 55.3125C25.7 55.795 26.1425 56.26 26.6075 56.695C27.2325 57.28 27.91 57.8225 28.62 58.305C31.705 60.4025 34.89 60.9875 35.2925 61.055C35.985 61.1975 36.6925 61.3075 37.4 61.385L37.495 61.4025H37.5675C37.795 61.4175 38.03 61.4325 38.2875 61.4475C38.56 61.4625 38.84 61.4725 39.14 61.4775C39.5675 61.485 39.9875 61.485 40.39 61.4725C40.465 61.4725 40.54 61.4675 40.615 61.4625H40.67C40.98 61.4475 41.26 61.4325 41.5225 61.4125C42.8025 61.315 44.0575 61.1125 45.25 60.81C45.5325 60.7375 45.805 60.6625 46.0675 60.585C46.4675 60.465 46.8675 60.3325 47.25 60.19C47.505 60.095 47.77 59.9925 48.045 59.8775L48.13 59.8425C48.185 59.82 48.24 59.7975 48.2975 59.7725C48.85 59.53 49.3925 59.26 49.9075 58.9725C50.21 58.8025 50.515 58.62 50.815 58.425C52.6975 57.21 54.26 55.695 55.455 53.92C55.69 53.57 55.915 53.205 56.1225 52.8325C56.305 52.7675 56.485 52.6925 56.66 52.6125C57.79 52.0875 58.7275 51.2725 59.375 50.255C59.9675 49.3275 60.275 48.28 60.265 47.225C60.255 46.17 59.93 45.13 59.32 44.215C58.8525 43.515 58.3025 42.9675 57.675 42.5825C57.565 42.05 57.4275 41.5225 57.2625 41C57.9725 40.7875 58.6675 40.4525 59.315 39.9975C60.4925 39.175 61.305 38.1275 61.6675 36.9725C61.985 35.955 61.9475 34.8625 61.5625 33.8975V33.8875ZM58.5275 38.86C57.6075 39.505 56.6125 39.845 55.6325 39.8725C55.5475 39.8725 55.4625 39.875 55.375 39.8725C55.89 41.045 56.25 42.2625 56.445 43.4875C57.11 43.7475 57.6925 44.2425 58.175 44.965C59.1125 46.3725 59.1275 48.07 58.215 49.5025C57.7075 50.3 56.97 50.9375 56.08 51.3525C55.7875 51.4875 55.485 51.595 55.175 51.675C54.92 52.18 54.635 52.6675 54.315 53.14C53.2225 54.76 51.78 56.155 50.07 57.2575C49.7975 57.4325 49.52 57.6025 49.235 57.7625C48.755 58.0325 48.26 58.2775 47.745 58.5025C47.6675 58.5375 47.5875 58.5675 47.51 58.6025C47.2675 58.7025 47.0225 58.8 46.775 58.8925C46.4125 59.025 46.045 59.1475 45.6725 59.26C45.42 59.335 45.1675 59.405 44.91 59.47C43.7925 59.7525 42.6275 59.9425 41.4175 60.0325C41.1525 60.0525 40.885 60.0675 40.615 60.0775C40.5275 60.0825 40.44 60.085 40.35 60.0875C39.96 60.1 39.565 60.1 39.1675 60.0925C38.9 60.0875 38.63 60.0775 38.3575 60.065C38.115 60.0525 37.87 60.0375 37.6225 60.0175C37.615 60.0175 37.6075 60.0175 37.5975 60.0175C37.5975 60.0175 37.595 60.0175 37.5925 60.0175C36.89 59.9425 36.205 59.835 35.54 59.6975C35.54 59.6975 32.4025 59.21 29.39 57.1625C28.735 56.7175 28.1175 56.225 27.545 55.6875C27.12 55.29 26.7175 54.8675 26.34 54.42C24.7975 52.5975 24.075 50.8725 23.805 50.11C23.6275 50.1625 23.4425 50.2 23.255 50.22C23.1675 50.23 23.0825 50.235 22.995 50.2375C21.8375 50.27 20.8125 49.655 20.1525 48.515C19.135 46.76 19.56 45.0425 20.2975 44.02C20.3675 43.9225 20.4425 43.83 20.52 43.7425C20.1625 43.3425 19.89 42.8875 19.7225 42.39C19.1775 40.7975 19.565 39.735 19.9875 39.1275C20.45 38.46 21.0525 38.18 21.0775 38.17C21.2225 38.105 21.3925 38.1325 21.51 38.24C21.625 38.3475 21.665 38.5175 21.61 38.665C21.385 39.2725 21.585 39.8375 21.8475 40.1625C22.065 40.4325 22.35 40.5775 22.5925 40.5425C22.965 40.49 23.2775 40.2975 23.4075 40.04C23.51 39.835 23.495 39.6075 23.36 39.3625L23.355 39.3525C22.855 38.43 21.68 36.2675 22.895 34.0525C24.08 31.89 26.24 31.8025 26.4275 31.8C27.11 30.005 27.7725 28.3375 27.9625 27.91C27.9625 27.9075 27.965 27.9025 27.9675 27.9C27.97 27.8925 27.975 27.8875 27.9775 27.88C27.98 27.875 27.985 27.87 27.9875 27.865C27.99 27.86 27.995 27.855 27.9975 27.8475C28 27.8425 28.005 27.8375 28.0075 27.8325C28.01 27.8275 28.015 27.8225 28.02 27.8175C28.025 27.8125 28.03 27.8075 28.0325 27.8025C28.0375 27.7975 28.0425 27.7925 28.045 27.79C28.05 27.785 28.055 27.7825 28.06 27.7775C28.065 27.7725 28.07 27.77 28.075 27.765C28.08 27.76 28.085 27.7575 28.09 27.7525C28.095 27.75 28.1 27.745 28.105 27.7425C28.11 27.7375 28.1175 27.735 28.1225 27.73C28.1275 27.7275 28.1325 27.725 28.1375 27.7225C28.145 27.72 28.15 27.715 28.1575 27.7125C28.16 27.7125 28.1625 27.71 28.1675 27.7075C28.3025 27.65 28.4425 27.5925 28.59 27.5325C28.5075 27.41 28.435 27.305 28.38 27.2225C28.15 27.2925 27.8975 27.345 27.65 27.3525C27.4975 27.3575 27.3475 27.345 27.2025 27.31C26.31 27.1 25.76 26.7825 25.0525 25.5475C24.5925 24.7425 24.46 23.965 24.6625 23.2375C24.9 22.3825 25.595 21.625 26.73 20.99C26.745 20.9825 26.76 20.975 26.775 20.9675C26.7875 20.9575 26.8 20.95 26.815 20.94C27.9675 20.285 29 20.0775 29.8825 20.325C30.6075 20.5275 31.2175 21.0475 31.65 21.825C32.34 23.07 32.3275 23.7025 32.0475 24.5775C31.94 24.9125 31.7075 25.21 31.4575 25.455C31.56 25.635 31.72 25.9125 31.915 26.2625C31.9225 26.2575 31.9325 26.255 31.9425 26.2575C31.95 26.2575 31.955 26.265 31.9575 26.27C33.3575 25.775 34.8425 25.275 36.18 24.8375C37.9325 24.265 39.4275 23.8025 40.1375 23.5975C40.1375 23.5975 40.1375 23.5975 40.14 23.5975C40.14 23.5975 40.14 23.5975 40.1425 23.5975C40.155 23.595 40.165 23.5925 40.1775 23.59C40.1825 23.59 40.1875 23.59 40.1925 23.59C40.2 23.59 40.2075 23.59 40.215 23.5875H40.235C40.235 23.5875 40.2475 23.5875 40.2525 23.5875C40.26 23.5875 40.2675 23.5875 40.275 23.5875C40.28 23.5875 40.285 23.5875 40.29 23.5875C40.2975 23.5875 40.305 23.5875 40.3125 23.59C40.3175 23.59 40.3225 23.59 40.3275 23.5925C40.335 23.5925 40.3425 23.5975 40.3475 23.5975C40.3525 23.5975 40.36 23.6 40.365 23.6025C40.37 23.6025 40.3775 23.6075 40.3825 23.6075C40.3875 23.6075 40.395 23.6125 40.4 23.615C40.405 23.615 40.41 23.62 40.415 23.6225C40.4225 23.625 40.4275 23.63 40.435 23.6325C40.44 23.635 40.445 23.6375 40.4475 23.64C40.4525 23.645 40.46 23.6475 40.465 23.6525C40.47 23.655 40.475 23.66 40.48 23.665C40.485 23.6675 40.49 23.6725 40.495 23.675C40.5025 23.68 40.5075 23.6875 40.515 23.6925C40.515 23.6925 40.52 23.6975 40.5225 23.7C40.53 23.71 40.54 23.72 40.5475 23.73C40.5475 23.73 40.5475 23.7325 40.55 23.735C41.68 25.1175 42.965 26.745 43.4 27.2975C44.4975 26.455 45.675 25.88 46.9175 25.585C48.6475 25.175 50.405 25.33 52.1425 26.0425C54.02 26.8125 54.89 28.1475 55.29 29.13C55.7825 30.345 55.835 31.69 55.43 32.8225C55.395 32.92 55.36 33.015 55.3225 33.1075C55.755 32.8425 56.31 32.62 57.0225 32.5125C58.41 32.3025 59.7475 33.08 60.2775 34.4025C60.765 35.6225 60.56 37.4375 58.52 38.865L58.5275 38.86Z" fill="#F4DBB2"/>
<path d="M54.4249 39.75C54.4574 40.005 54.4799 40.2625 54.4874 40.525C54.5924 44.1275 52.1624 47.1325 49.0699 47.2225C49.0549 47.2225 49.0399 47.2225 49.0249 47.2225C48.8849 47.615 48.6699 47.9875 48.3874 48.3075C47.8849 48.875 46.9849 49.5025 45.4474 49.5475C45.1574 49.555 44.8424 49.5425 44.5049 49.505C44.2899 49.48 44.1324 49.2875 44.1574 49.07C44.1824 48.855 44.3749 48.6975 44.5924 48.7225C46.3799 48.92 47.3224 48.3225 47.7949 47.785C47.9574 47.6 48.0899 47.3925 48.1924 47.1675C48.3024 46.9225 48.3774 46.6625 48.4074 46.4025C48.4374 46.1375 48.4274 45.8725 48.3674 45.6225C48.3299 45.4625 48.2749 45.3175 48.2049 45.1925C48.0474 44.9075 47.8099 44.7075 47.5049 44.6025C47.2299 44.51 46.9224 44.5025 46.6049 44.575C46.3099 44.6425 46.0049 44.78 45.7124 44.9775C45.6349 45.03 45.5574 45.0875 45.4824 45.1475C45.3449 45.26 45.2124 45.3625 45.0824 45.455C43.8149 46.4825 42.8349 46.2975 42.7374 46.29C41.8499 47.0575 40.7574 47.5225 39.5674 47.5575C39.0124 47.5725 38.4749 47.495 37.9624 47.3325C38.0324 47.8375 38.0024 48.35 37.8749 48.8525C38.5524 49.2725 41.8599 51.1775 45.3249 50.6775C47.3774 50.3825 48.4824 49.4575 49.2874 48.785C50.0524 48.1475 50.7124 47.595 51.6649 48.1075C52.1699 48.38 52.4524 48.8625 52.4599 49.4675C52.4774 50.8 51.1799 52.52 49.3774 53.5525C48.0099 54.335 46.1374 54.805 44.2299 54.8625C43.9149 54.8725 43.5999 54.87 43.2849 54.855C40.4574 54.73 37.7449 53.6925 35.4124 51.85C35.3399 51.8875 35.2649 51.925 35.1899 51.9625C34.5399 52.265 33.8424 52.4275 33.1324 52.4475C32.8149 52.4575 32.4924 52.4375 32.1724 52.3875C31.9574 52.355 31.8099 52.1525 31.8424 51.9375C31.8749 51.7225 32.0774 51.575 32.2924 51.6075C34.0049 51.8675 35.7624 51.0975 36.6599 49.685C37.2124 48.8175 37.3524 47.8625 37.0799 46.96C36.9824 46.635 36.8324 46.315 36.6274 46.01C36.4999 45.8175 36.3649 45.6475 36.2224 45.495C35.7949 45.0425 35.3074 44.775 34.7649 44.6975C34.7399 44.6925 34.7124 44.69 34.6849 44.6875C32.9249 44.495 31.0924 46.2375 31.0749 46.255C30.9174 46.405 30.6674 46.4025 30.5174 46.245C30.3674 46.0875 30.3699 45.84 30.5274 45.6875C30.6074 45.61 32.3824 43.9175 34.3524 43.885C34.0024 43.0675 33.7949 42.155 33.7674 41.1875C33.7099 39.2575 34.3824 37.5 35.4924 36.27L30.4374 37.8275C30.5599 38.2475 30.7199 38.9525 30.7274 39.785C30.7449 41.5575 30.0549 43.0425 28.7349 44.0825C27.8574 44.775 26.8249 45.215 25.7474 45.3825C25.8049 45.825 25.7799 46.145 25.7774 46.165C25.7574 46.3825 25.5674 46.5425 25.3499 46.5225C25.1324 46.5025 24.9724 46.3125 24.9924 46.095C24.9949 46.065 25.0124 45.8025 24.9649 45.4575C24.9324 45.22 24.8674 44.94 24.7474 44.665C24.5149 44.1425 24.0724 43.635 23.2324 43.46C22.7124 43.3525 22.1774 43.46 21.7074 43.75C21.4849 43.8875 21.2799 44.0625 21.0949 44.2775C21.0399 44.3425 20.9849 44.4075 20.9349 44.4775C20.3399 45.3 20.0024 46.6875 20.8324 48.115C21.5799 49.4025 22.6149 49.4925 23.1649 49.43C23.4199 49.4025 23.6574 49.335 23.8724 49.2425C23.8899 49.235 23.9074 49.2275 23.9249 49.22C24.4274 48.99 24.7874 48.625 24.8924 48.2925C24.9574 48.085 25.1774 47.9675 25.3874 48.0325C25.5949 48.0975 25.7099 48.32 25.6449 48.5275C25.4874 49.03 25.0749 49.48 24.5324 49.7925C24.7674 50.465 25.4624 52.165 26.9624 53.9325C27.6549 54.7475 28.5799 55.6425 29.7899 56.4675C30.8099 57.1625 32.0299 57.8075 33.4824 58.31C34.7049 58.7325 36.0924 59.0575 37.6624 59.225C37.6624 59.225 37.6649 59.225 37.6674 59.225C37.6674 59.225 37.6699 59.225 37.6724 59.225C37.8449 59.24 38.0199 59.25 38.1899 59.26C38.4624 59.2775 38.7349 59.2875 39.0049 59.295C39.4774 59.3075 39.9424 59.305 40.4024 59.29C40.6749 59.28 40.9424 59.2675 41.2099 59.25C42.4074 59.1675 43.5574 58.99 44.6524 58.7225C44.9099 58.66 45.1649 58.59 45.4174 58.5175C45.7799 58.4125 46.1349 58.295 46.4824 58.17C46.7299 58.08 46.9749 57.985 47.2174 57.8825C47.6049 57.72 47.9824 57.545 48.3499 57.3575C48.6424 57.2075 48.9274 57.05 49.2074 56.8825C50.9974 55.815 52.5049 54.41 53.6599 52.695C53.8524 52.41 54.0299 52.12 54.1974 51.825C54.1399 51.8275 54.0799 51.8325 54.0224 51.835C53.7049 51.845 53.3849 51.825 53.0649 51.775C52.8499 51.7425 52.7024 51.54 52.7349 51.325C52.7674 51.11 52.9699 50.9625 53.1849 50.995C53.6724 51.07 54.1624 51.06 54.6374 50.975C54.9774 50.915 55.3124 50.815 55.6274 50.68C56.4124 50.345 57.0949 49.7925 57.5549 49.0725C58.3074 47.8925 58.2949 46.5525 57.5249 45.395C57.2374 44.9625 56.9174 44.635 56.5674 44.4125C56.3074 44.2475 56.0299 44.14 55.7324 44.09C55.4349 44.0375 55.1174 44.0425 54.7799 44.105C54.5649 44.145 54.3599 44.0025 54.3224 43.7875C54.2824 43.5725 54.4249 43.3675 54.6399 43.33C54.9774 43.27 55.3024 43.255 55.6149 43.2825C55.3974 42.0875 55.0149 40.8975 54.4624 39.745C54.4524 39.745 54.4449 39.74 54.4349 39.7375L54.4249 39.75ZM35.3324 46.8475C35.5424 46.8425 35.7199 47.0075 35.7274 47.2175C35.7324 47.4275 35.5674 47.605 35.3549 47.6125C35.1449 47.6175 34.9674 47.4525 34.9624 47.24C34.9574 47.03 35.1224 46.8525 35.3349 46.8475H35.3324ZM34.7674 48.335C34.9774 48.33 35.1549 48.495 35.1624 48.7075C35.1674 48.9175 35.0024 49.095 34.7899 49.1C34.5799 49.105 34.4024 48.94 34.3974 48.73C34.3924 48.52 34.5574 48.3425 34.7699 48.335H34.7674ZM33.7224 47.1975C33.9324 47.1925 34.1099 47.3575 34.1174 47.57C34.1249 47.7825 33.9574 47.9575 33.7449 47.9625C33.5349 47.9675 33.3574 47.8025 33.3524 47.5925C33.3474 47.3825 33.5124 47.205 33.7249 47.1975H33.7224ZM24.0299 47.7275C24.0274 47.94 23.8574 48.11 23.6474 48.115C23.6424 48.115 23.6349 48.115 23.6299 48.115C23.4124 48.1125 23.2399 47.9325 23.2424 47.715C23.2424 47.6925 23.2474 45.7025 21.8499 45.2375C21.6424 45.17 21.5324 44.945 21.5999 44.7375C21.6099 44.705 21.6249 44.675 21.6449 44.6475C21.7399 44.5 21.9249 44.43 22.0999 44.4875C22.6024 44.655 22.9724 44.945 23.2474 45.2825C24.0399 46.2575 24.0324 47.645 24.0299 47.725V47.7275ZM56.5124 46.2275C56.5449 46.2275 56.5749 46.2275 56.6049 46.235C56.7724 46.2725 56.9024 46.4175 56.9074 46.5975C56.9124 46.805 56.7549 46.9775 56.5499 46.99C56.5449 46.99 56.5424 46.99 56.5374 46.99C56.3274 46.995 56.1499 46.83 56.1424 46.6175C56.1349 46.405 56.3024 46.23 56.5149 46.225L56.5124 46.2275ZM55.5774 48.1C55.5774 48.0475 55.5874 47.9975 55.6049 47.9525C55.6599 47.8175 55.7924 47.72 55.9474 47.715C56.1574 47.71 56.3349 47.875 56.3399 48.0875C56.3449 48.2975 56.1799 48.475 55.9674 48.48C55.7549 48.485 55.5799 48.32 55.5724 48.11C55.5724 48.1075 55.5724 48.105 55.5724 48.1H55.5774ZM54.9049 46.5775C55.1149 46.5725 55.2924 46.7375 55.2974 46.95C55.3024 47.16 55.1374 47.3375 54.9249 47.3425C54.7149 47.3475 54.5374 47.1825 54.5324 46.9725C54.5274 46.7625 54.6924 46.585 54.9024 46.5775H54.9049Z" fill="#F4DBB2"/>
<path d="M46.435 53.935L46.08 51.22C45.87 51.2675 45.6525 51.3075 45.4225 51.34C44.1125 51.5275 42.84 51.405 41.7075 51.1475L41.165 53.9C43.085 54.3275 44.9125 54.2625 46.435 53.935Z" fill="#F4DBB2"/>
<path d="M53.6998 40.5475C53.6898 40.175 53.6473 39.81 53.5798 39.4575C53.5073 39.085 53.4073 38.7275 53.2773 38.385C52.9248 37.4475 52.3698 36.6425 51.6798 36.0475C51.4098 35.815 51.1198 35.6125 50.8148 35.45C50.6373 35.355 50.4523 35.27 50.2648 35.2025C50.1523 35.16 50.0373 35.1225 49.9198 35.09C49.5323 34.9825 49.1273 34.9325 48.7098 34.945C47.4923 34.98 46.3973 35.5525 45.5748 36.4675C45.5298 36.515 45.4848 36.5625 45.4473 36.615C45.0373 37.105 44.7023 37.6825 44.4648 38.3225C44.5873 38.6325 44.6923 38.9525 44.7748 39.2875C44.8773 38.8575 45.0298 38.4525 45.2273 38.0825C45.3823 38.5 45.7198 38.8225 46.1623 38.9225C46.8848 39.0825 47.6098 38.5775 47.7823 37.7975C47.9248 37.1575 47.6523 36.5275 47.1523 36.235C47.5523 36.0575 47.9848 35.955 48.4373 35.94C49.5223 35.9075 50.5173 36.395 51.2548 37.2075C51.5423 37.525 51.7898 37.8925 51.9873 38.2975C52.2998 38.94 52.4898 39.6775 52.5123 40.465C52.5823 42.885 51.0648 44.92 49.0623 45.19C49.0898 45.2725 49.1148 45.3575 49.1373 45.445C49.2123 45.765 49.2323 46.1 49.2023 46.43C51.7848 46.2575 53.7898 43.6575 53.6998 40.5525V40.5475Z" fill="#F4DBB2"/>
<path d="M41.0303 22.3875L41.0368 22.3908L41.0303 22.3875Z" fill="#F4DBB2"/>
<path d="M8.8051 39.12L8.7926 39.905L9.8576 40.08L9.8476 40.81L5.0376 39.94L5.0526 38.9625L9.8876 38.235L9.8776 38.98L8.8076 39.1225L8.8051 39.12ZM8.1001 39.2075L6.0776 39.475L8.0926 39.8L8.1026 39.2075H8.1001Z" fill="#F4DBB2"/>
<path d="M10.5725 33.4375L8.51502 33.56L8.44002 33.9325L10.3925 34.33L10.2475 35.045L5.52002 34.085L5.74752 32.965C5.81752 32.6225 5.97502 32.3725 6.22002 32.21C6.46502 32.05 6.76002 32.0025 7.10252 32.0725L7.62252 32.1775C7.83752 32.2225 8.02252 32.3025 8.17002 32.4225C8.32002 32.5425 8.42502 32.69 8.48752 32.8675L10.7225 32.695L10.5725 33.4375ZM7.76502 33.795L7.84002 33.4225C7.86752 33.2825 7.85252 33.1675 7.79002 33.075C7.73002 32.9825 7.63002 32.9225 7.49002 32.895L6.94252 32.785C6.80252 32.7575 6.68752 32.7725 6.59502 32.835C6.50252 32.895 6.44252 32.9975 6.41502 33.135L6.34002 33.5075L7.76502 33.7975V33.795Z" fill="#F4DBB2"/>
<path d="M6.4624 30.045L7.1049 28.0725L7.7599 28.2875L7.3424 29.565L8.6199 29.9825L8.9524 28.9675L9.6074 29.1825L9.2749 30.1975L10.6174 30.635L11.0349 29.3575L11.6899 29.5725L11.0474 31.545L6.4624 30.0475V30.045Z" fill="#F4DBB2"/>
<path d="M11.795 26.625L11.4675 27.3375L12.3725 27.9275L12.0675 28.59L8.02002 25.8475L8.43002 24.9576L13.145 26.2475L12.835 26.9226L11.7975 26.6201L11.795 26.625ZM11.1175 26.42L9.16002 25.845L10.87 26.9576L11.1175 26.42Z" fill="#F4DBB2"/>
<path d="M9.58252 22.7326L9.96002 22.1076L13.5 24.2426L14.1725 23.1276L14.7625 23.4826L13.7125 25.2226L9.58252 22.7301V22.7326Z" fill="#F4DBB2"/>
<path d="M16.8199 19.1051L16.2999 19.6951L16.9974 20.5201L16.5149 21.0676L13.4224 17.2801L14.0699 16.5451L18.2174 19.1326L17.7249 19.6901L16.8174 19.1026L16.8199 19.1051ZM16.2299 18.7126L14.5199 17.6001L15.8399 19.1576L16.2324 18.7126H16.2299Z" fill="#F4DBB2"/>
<path d="M19.0778 17.9575C18.7803 17.9425 18.5203 17.8125 18.2953 17.5625L15.7778 14.765L16.3203 14.2775L18.8378 17.075C18.9303 17.1775 19.0303 17.2325 19.1378 17.24C19.2453 17.2475 19.3453 17.21 19.4328 17.13C19.5228 17.05 19.5678 16.955 19.5728 16.8475C19.5778 16.7375 19.5328 16.6325 19.4403 16.53L16.9228 13.7325L17.4553 13.2525L19.9728 16.05C20.1978 16.3 20.3028 16.57 20.2878 16.865C20.2728 17.1575 20.1428 17.4175 19.8928 17.6425C19.6428 17.8675 19.3703 17.9725 19.0728 17.9575H19.0778Z" fill="#F4DBB2"/>
<path d="M18.7749 12.195L20.6724 10.8425L21.0724 11.4025L20.4224 11.8675L22.8224 15.235L22.2274 15.66L19.8274 12.2925L19.1774 12.7575L18.7774 12.1975L18.7749 12.195Z" fill="#F4DBB2"/>
<path d="M24.4525 14.1551L22.125 9.93008L22.765 9.57758L23.745 11.3576L24.505 10.9376L23.525 9.15758L24.165 8.80508L26.4925 13.0301L25.8525 13.3826L24.84 11.5426L24.08 11.9601L25.0925 13.8001L24.4525 14.1526V14.1551Z" fill="#F4DBB2"/>
<path d="M25.9399 7.97506L27.8599 7.19256L28.1199 7.83006L26.8749 8.33756L27.3799 9.58256L28.3699 9.18006L28.6299 9.81756L27.6399 10.2201L28.1724 11.5276L29.4174 11.0226L29.6774 11.6601L27.7574 12.4426L25.9399 7.97506Z" fill="#F4DBB2"/>
<path d="M29.5449 6.61758L30.3224 6.40508L32.0749 9.28258L31.2199 6.16008L31.9099 5.97008L33.1824 10.6226L32.4374 10.8276L30.6924 8.10508L31.5074 11.0826L30.8174 11.2726L29.5449 6.62008V6.61758Z" fill="#F4DBB2"/>
<path d="M33.6025 5.61505L35.905 5.27005L36.0075 5.95255L35.2175 6.07005L35.83 10.1576L35.1075 10.2651L34.495 6.17755L33.705 6.29505L33.6025 5.61255V5.61505Z" fill="#F4DBB2"/>
<path d="M37.5576 5.13506L38.2876 5.09256L38.5701 9.90756L37.8401 9.95006L37.5576 5.13506Z" fill="#F4DBB2"/>
<path d="M40.2803 9.62008C40.0753 9.40258 39.9803 9.12258 39.9928 8.78258L40.0853 6.11008C40.0978 5.77008 40.2128 5.49758 40.4303 5.29508C40.6478 5.09258 40.9278 4.99508 41.2678 5.00758C41.6078 5.02008 41.8803 5.13508 42.0828 5.35258C42.2853 5.57008 42.3828 5.85008 42.3703 6.19008L42.3503 6.75508L41.6353 6.73008L41.6553 6.16508C41.6603 6.02758 41.6253 5.91508 41.5503 5.83008C41.4753 5.74508 41.3753 5.70008 41.2528 5.69508C41.1303 5.69008 41.0253 5.72758 40.9453 5.80758C40.8653 5.88758 40.8203 5.99508 40.8178 6.13508L40.7253 8.80758C40.7203 8.94508 40.7553 9.05758 40.8303 9.14258C40.9053 9.22758 41.0053 9.27258 41.1278 9.27758C41.2528 9.28258 41.3553 9.24508 41.4353 9.16508C41.5153 9.08508 41.5603 8.97758 41.5628 8.83758L41.5878 8.15008L42.3028 8.17508L42.2778 8.86258C42.2653 9.20258 42.1503 9.47508 41.9328 9.67758C41.7153 9.88258 41.4353 9.97758 41.0953 9.96508C40.7553 9.95258 40.4828 9.83758 40.2803 9.62008Z" fill="#F4DBB2"/>
<path d="M45.9351 10.3751C45.7826 10.2376 45.6776 10.0701 45.6201 9.87506C45.5626 9.67756 45.5576 9.46756 45.6076 9.24506L45.6451 9.07756L46.3476 9.15506L46.3076 9.33006C46.2701 9.50006 46.2801 9.64506 46.3401 9.76006C46.4001 9.87756 46.5001 9.95006 46.6426 9.98256C46.7826 10.0126 46.9026 9.99756 47.0026 9.93506C47.1026 9.87256 47.1701 9.77256 47.2001 9.63256C47.2326 9.48006 47.2226 9.32506 47.1651 9.16506C47.1076 9.00756 46.9776 8.77506 46.7726 8.47006C46.4951 8.06006 46.3176 7.73256 46.2401 7.48506C46.1601 7.23756 46.1501 6.98256 46.2076 6.72256C46.2851 6.36756 46.4451 6.10756 46.6826 5.94256C46.9226 5.77756 47.2101 5.73006 47.5451 5.80506C47.8826 5.88006 48.1226 6.04256 48.2701 6.29756C48.4151 6.55006 48.4501 6.85506 48.3726 7.21006L48.3451 7.33006L47.6426 7.25256L47.6726 7.11756C47.7126 6.93756 47.7101 6.79506 47.6626 6.68506C47.6151 6.57506 47.5301 6.50756 47.4051 6.48006C47.2801 6.45256 47.1751 6.47006 47.0901 6.53006C47.0051 6.59256 46.9476 6.69506 46.9151 6.84506C46.8826 6.99256 46.8951 7.14506 46.9551 7.30256C47.0151 7.46006 47.1426 7.69256 47.3426 8.00506C47.6151 8.43256 47.7926 8.76756 47.8726 9.00756C47.9526 9.25006 47.9651 9.49756 47.9076 9.75256C47.8576 9.97756 47.7651 10.1651 47.6301 10.3201C47.4951 10.4726 47.3301 10.5801 47.1326 10.6401C46.9351 10.7001 46.7251 10.7051 46.5001 10.6551C46.2751 10.6051 46.0876 10.5126 45.9351 10.3751Z" fill="#F4DBB2"/>
<path d="M53.5877 7.76257L51.9227 12.2901L51.2377 12.0376L52.3802 8.93257L50.5977 11.8001L50.1202 11.6251L50.6202 8.28507L49.4777 11.3901L48.8052 11.1426L50.4702 6.61507L51.4402 6.97257L50.9727 10.0826L52.6052 7.40007L53.5877 7.76257Z" fill="#F4DBB2"/>
<path d="M54.9102 12.6075L54.2152 12.24L53.5752 13.11L52.9302 12.7675L55.8977 8.88254L56.7627 9.34004L55.2077 13.975L54.5502 13.625L54.9102 12.6075ZM55.1552 11.9425L55.8402 10.02L54.6327 11.665L55.1552 11.9425Z" fill="#F4DBB2"/>
<path d="M56.5699 14.7525C56.4799 14.5675 56.4449 14.3726 56.4649 14.17C56.4849 13.9675 56.5599 13.77 56.6899 13.58L56.7874 13.4375L57.4099 13.7725L57.3074 13.92C57.2074 14.065 57.1649 14.2 57.1749 14.33C57.1849 14.46 57.2524 14.5675 57.3724 14.65C57.4899 14.73 57.6074 14.76 57.7249 14.74C57.8424 14.72 57.9399 14.6525 58.0224 14.535C58.1099 14.4075 58.1574 14.2576 58.1649 14.09C58.1724 13.9225 58.1374 13.6576 58.0599 13.3001C57.9574 12.8176 57.9149 12.4451 57.9349 12.1851C57.9549 11.9251 58.0399 11.685 58.1899 11.465C58.3949 11.165 58.6399 10.985 58.9249 10.92C59.2074 10.855 59.4924 10.9201 59.7774 11.1176C60.0599 11.3126 60.2224 11.5551 60.2649 11.8451C60.3049 12.1351 60.2224 12.43 60.0174 12.7275L59.9474 12.83L59.3249 12.495L59.4024 12.3825C59.5074 12.23 59.5574 12.095 59.5549 11.9775C59.5549 11.86 59.4974 11.7625 59.3924 11.69C59.2874 11.6175 59.1824 11.5926 59.0824 11.6176C58.9824 11.6426 58.8874 11.7175 58.8024 11.8425C58.7174 11.9675 58.6724 12.1125 58.6674 12.28C58.6649 12.4475 58.6949 12.7126 58.7624 13.0776C58.8549 13.5751 58.8924 13.9525 58.8774 14.205C58.8624 14.46 58.7799 14.695 58.6299 14.91C58.4999 15.1 58.3424 15.24 58.1599 15.3326C57.9774 15.4251 57.7824 15.46 57.5774 15.4425C57.3724 15.425 57.1749 15.35 56.9849 15.22C56.7949 15.09 56.6549 14.9326 56.5649 14.7476L56.5699 14.7525Z" fill="#F4DBB2"/>
<path d="M58.9575 16.5826L62.1375 12.9576L62.6875 13.4401L61.3475 14.9676L62 15.5401L63.34 14.0126L63.89 14.4951L60.71 18.1201L60.16 17.6376L61.545 16.0576L60.8925 15.4851L59.5075 17.0651L58.9575 16.5826Z" fill="#F4DBB2"/>
<path d="M66.1075 21.0625C66.0375 21.235 65.9125 21.3925 65.7325 21.535L65.4225 21.7775C65.1475 21.9925 64.8625 22.0825 64.5725 22.0475C64.2825 22.0125 64.0275 21.8575 63.8125 21.5825L63.0625 20.62L66.8675 17.655L67.58 18.5675C67.795 18.8425 67.8825 19.1275 67.845 19.4175C67.8075 19.71 67.65 19.9625 67.375 20.1775L67.175 20.335C66.835 20.6 66.4925 20.66 66.145 20.5175C66.19 20.71 66.1775 20.8925 66.11 21.065L66.1075 21.0625ZM65.3425 20.91C65.48 20.8025 65.5575 20.69 65.57 20.57C65.585 20.45 65.5375 20.3225 65.43 20.185L65.1925 19.88L64.0525 20.77L64.3325 21.1275C64.42 21.24 64.5175 21.3025 64.6275 21.3175C64.7375 21.33 64.8475 21.295 64.96 21.2075L65.34 20.91H65.3425ZM66.77 18.6525L65.7375 19.4575L65.9375 19.7125C66.045 19.85 66.1575 19.9275 66.2775 19.94C66.3975 19.955 66.525 19.9075 66.6625 19.8L66.935 19.5875C67.0475 19.5 67.11 19.4025 67.125 19.2925C67.1375 19.1825 67.1025 19.0725 67.015 18.96L66.7725 18.65L66.77 18.6525Z" fill="#F4DBB2"/>
<path d="M65.575 23.6375C65.645 23.3475 65.8225 23.1175 66.11 22.945L69.3325 21.0025L69.71 21.6275L66.4875 23.57C66.37 23.64 66.2975 23.73 66.27 23.835C66.2425 23.94 66.26 24.045 66.32 24.145C66.3825 24.2475 66.465 24.31 66.5725 24.335C66.6775 24.36 66.79 24.335 66.9075 24.265L70.13 22.3225L70.5 22.935L67.2775 24.8775C66.99 25.05 66.705 25.1025 66.4175 25.0325C66.1325 24.9625 65.9025 24.785 65.73 24.4975C65.5575 24.21 65.505 23.9225 65.575 23.6325V23.6375Z" fill="#F4DBB2"/>
<path d="M67.6725 28.13L69.27 26.83L69.115 26.485L67.3 27.3025L67 26.6375L71.3975 24.6575L71.8675 25.7C72.01 26.0175 72.03 26.315 71.925 26.59C71.82 26.865 71.6075 27.0725 71.29 27.2175L70.805 27.435C70.605 27.525 70.4075 27.565 70.2175 27.555C70.0275 27.545 69.855 27.4875 69.7 27.38L67.985 28.825L67.675 28.135L67.6725 28.13ZM69.7425 26.2L69.8975 26.545C69.955 26.675 70.0375 26.76 70.14 26.7975C70.2425 26.8375 70.36 26.8275 70.49 26.7675L71 26.5375C71.13 26.48 71.215 26.3975 71.2525 26.295C71.2925 26.1925 71.2825 26.075 71.2225 25.945L71.0675 25.6L69.7425 26.1975V26.2Z" fill="#F4DBB2"/>
<path d="M72.0249 30.4225L72.4124 30.3C72.5574 30.255 72.6574 30.1825 72.7124 30.0825C72.7674 29.9825 72.7749 29.8675 72.7349 29.7375C72.6949 29.605 72.6224 29.515 72.5199 29.465C72.4174 29.415 72.2949 29.4125 72.1499 29.4575L69.6374 30.2425C69.4924 30.2875 69.3924 30.36 69.3374 30.46C69.2824 30.56 69.2749 30.675 69.3149 30.805C69.3549 30.9375 69.4274 31.0275 69.5299 31.0775C69.6324 31.1275 69.7549 31.13 69.8999 31.085L70.7149 30.83L70.5824 30.41L71.2399 30.205L71.5899 31.3225L70.1174 31.7825C69.7849 31.8875 69.4824 31.8675 69.2149 31.725C68.9474 31.5825 68.7599 31.345 68.6549 31.0125C68.5499 30.68 68.5674 30.3775 68.7074 30.1075C68.8474 29.8375 69.0824 29.65 69.4174 29.5475L71.9299 28.7625C72.2624 28.6575 72.5649 28.6775 72.8324 28.82C73.0999 28.9625 73.2874 29.2 73.3924 29.5325C73.4974 29.865 73.4799 30.1675 73.3399 30.4375C73.1999 30.7075 72.9649 30.895 72.6299 30.9975L72.2424 31.12L72.0249 30.4225Z" fill="#F4DBB2"/>
<path d="M74.1174 32.4851L74.5049 34.5226L73.8274 34.6526L73.5749 33.3326L72.2549 33.5851L72.4549 34.6351L71.7774 34.7651L71.5774 33.7151L70.1899 33.9801L70.4424 35.3001L69.7649 35.4301L69.3774 33.3926L74.1149 32.4901L74.1174 32.4851Z" fill="#F4DBB2"/>
<path d="M70.0453 38.265L71.9928 37.5875L71.9653 37.21L69.9803 37.3575L69.9253 36.63L74.7353 36.27L74.8203 37.41C74.8453 37.7575 74.7628 38.0425 74.5703 38.265C74.3778 38.4875 74.1053 38.61 73.7578 38.6375L73.2278 38.6775C73.0078 38.695 72.8103 38.665 72.6353 38.59C72.4603 38.515 72.3178 38.4025 72.2103 38.2475L70.1053 39.02L70.0478 38.265H70.0453ZM72.6528 37.1575L72.6803 37.535C72.6903 37.6775 72.7378 37.785 72.8228 37.855C72.9053 37.9275 73.0203 37.9575 73.1603 37.9475L73.7178 37.905C73.8603 37.895 73.9678 37.8475 74.0378 37.7625C74.1103 37.6775 74.1403 37.565 74.1303 37.425L74.1028 37.0475L72.6528 37.155V37.1575Z" fill="#F4DBB2"/>
<path d="M10.2698 51.76L10.7223 52.84L9.64732 53.29L9.19482 52.21L10.2698 51.76Z" fill="#F4DBB2"/>
<path d="M11.4348 54.3525L11.9798 55.3875L10.9498 55.93L10.4048 54.895L11.4348 54.3525Z" fill="#F4DBB2"/>
<path d="M12.8247 56.83L13.4622 57.8125L12.4847 58.445L11.8472 57.4625L12.8247 56.83Z" fill="#F4DBB2"/>
<path d="M14.4297 59.1725L15.1497 60.095L14.2322 60.8125L13.5122 59.89L14.4297 59.1725Z" fill="#F4DBB2"/>
<path d="M16.2372 61.3675L17.0372 62.2225L16.1872 63.0175L15.3872 62.1625L16.2372 61.3675Z" fill="#F4DBB2"/>
<path d="M18.2296 63.39L19.1022 64.1725L18.3246 65.04L17.4521 64.2575L18.2296 63.39Z" fill="#F4DBB2"/>
<path d="M20.3972 65.2325L21.3347 65.935L20.6372 66.8675L19.6997 66.165L20.3972 65.2325Z" fill="#F4DBB2"/>
<path d="M22.7121 66.8725L23.7096 67.4875L23.0971 68.4775L22.0996 67.8625L22.7121 66.8725Z" fill="#F4DBB2"/>
<path d="M25.17 68.3025L26.2175 68.8275L25.695 69.8675L24.6475 69.3425L25.17 68.3025Z" fill="#F4DBB2"/>
<path d="M29.1272 70.9825C29.1572 71.1675 29.1297 71.365 29.0472 71.58L28.9047 71.945C28.7772 72.27 28.5797 72.4925 28.3122 72.6125C28.0447 72.7325 27.7472 72.73 27.4222 72.6025L26.2847 72.16L28.0322 67.665L29.1122 68.085C29.4372 68.2125 29.6597 68.41 29.7747 68.68C29.8922 68.95 29.8872 69.2475 29.7597 69.5725L29.6672 69.81C29.5097 70.2125 29.2472 70.44 28.8772 70.4925C29.0147 70.635 29.0972 70.7975 29.1272 70.9825ZM28.3947 71.245C28.4572 71.0825 28.4647 70.945 28.4172 70.835C28.3697 70.725 28.2622 70.6375 28.0997 70.575L27.7397 70.435L27.2147 71.7825L27.6397 71.9475C27.7722 72 27.8897 72.0025 27.9897 71.9575C28.0897 71.9125 28.1672 71.825 28.2197 71.6925L28.3947 71.2425V71.245ZM28.4647 68.5725L27.9897 69.7925L28.2922 69.91C28.4547 69.9725 28.5922 69.98 28.7022 69.9325C28.8122 69.885 28.8997 69.7775 28.9622 69.615L29.0872 69.295C29.1397 69.1625 29.1422 69.045 29.0972 68.945C29.0522 68.845 28.9647 68.7675 28.8322 68.715L28.4672 68.5725H28.4647Z" fill="#F4DBB2"/>
<path d="M29.6771 73.1375C29.5321 72.8775 29.5046 72.5875 29.5971 72.265L30.6271 68.6475L31.3296 68.8475L30.2996 72.465C30.2621 72.5975 30.2696 72.7125 30.3196 72.8075C30.3721 72.9025 30.4546 72.9675 30.5696 73C30.6846 73.0325 30.7896 73.0225 30.8846 72.9675C30.9796 72.9125 31.0446 72.82 31.0821 72.6875L32.1121 69.07L32.8021 69.2675L31.7721 72.885C31.6796 73.2075 31.5071 73.44 31.2496 73.585C30.9946 73.73 30.7046 73.755 30.3821 73.6625C30.0596 73.57 29.8246 73.395 29.6796 73.1375H29.6771Z" fill="#F4DBB2"/>
<path d="M34.0646 74.435L33.9096 72.38L33.5371 72.31L33.1721 74.2675L32.4546 74.1325L33.3396 69.39L34.4646 69.6C34.8071 69.665 35.0621 69.8175 35.2271 70.0625C35.3921 70.305 35.4421 70.6 35.3771 70.9425L35.2796 71.465C35.2396 71.6825 35.1596 71.865 35.0446 72.0175C34.9271 72.1675 34.7821 72.2775 34.6046 72.3425L34.8121 74.575L34.0671 74.435H34.0646ZM33.6621 71.6325L34.0346 71.7025C34.1746 71.7275 34.2896 71.71 34.3821 71.6475C34.4721 71.585 34.5321 71.485 34.5571 71.345L34.6596 70.7975C34.6846 70.6575 34.6671 70.5425 34.6046 70.45C34.5421 70.36 34.4421 70.3 34.3021 70.275L33.9296 70.205L33.6621 71.635V71.6325Z" fill="#F4DBB2"/>
<path d="M37.4747 71.5125L37.5122 71.1075C37.5272 70.9575 37.4972 70.8375 37.4272 70.7475C37.3572 70.6575 37.2522 70.6075 37.1172 70.595C36.9822 70.5825 36.8697 70.6125 36.7822 70.6875C36.6972 70.7625 36.6472 70.875 36.6322 71.0275L36.3897 73.6475C36.3747 73.7975 36.4047 73.9175 36.4747 74.0075C36.5447 74.0975 36.6472 74.1475 36.7847 74.16C36.9222 74.1725 37.0322 74.1425 37.1197 74.0675C37.2047 73.9925 37.2547 73.88 37.2697 73.7275L37.3497 72.8775L36.9097 72.8375L36.9722 72.1525L38.1372 72.26L37.9947 73.7975C37.9622 74.145 37.8297 74.415 37.5947 74.6075C37.3597 74.8 37.0697 74.88 36.7222 74.8475C36.3747 74.815 36.1022 74.6825 35.9072 74.45C35.7122 74.2175 35.6297 73.9275 35.6622 73.58L35.9047 70.96C35.9372 70.6125 36.0697 70.3425 36.3047 70.15C36.5397 69.9575 36.8297 69.8775 37.1772 69.91C37.5247 69.9425 37.7972 70.075 37.9922 70.3075C38.1872 70.54 38.2697 70.83 38.2372 71.1775L38.1997 71.5825L37.4722 71.515L37.4747 71.5125Z" fill="#F4DBB2"/>
<path d="M38.8425 70.1001L40.9175 70.1126L40.9125 70.8026L39.57 70.7951L39.5625 72.1376L40.63 72.1426L40.625 72.8326L39.5575 72.8276L39.55 74.2401L40.8925 74.2476L40.8875 74.9376L38.8125 74.9251L38.84 70.1026L38.8425 70.1001Z" fill="#F4DBB2"/>
<path d="M43.3423 74.77L42.6548 72.8275L42.2773 72.8575L42.4373 74.8425L41.7098 74.9L41.3223 70.0925L42.4623 70C42.8098 69.9725 43.0948 70.055 43.3173 70.245C43.5398 70.435 43.6648 70.7075 43.6923 71.055L43.7348 71.585C43.7523 71.805 43.7248 72.0025 43.6523 72.18C43.5798 72.3575 43.4648 72.5 43.3123 72.6075L44.0973 74.7075L43.3423 74.7675V74.77ZM42.2223 72.1725L42.5998 72.1425C42.7423 72.13 42.8473 72.0825 42.9198 72C42.9923 71.915 43.0223 71.8025 43.0098 71.66L42.9648 71.1025C42.9523 70.96 42.9048 70.855 42.8223 70.7825C42.7373 70.71 42.6248 70.68 42.4823 70.6925L42.1048 70.7225L42.2223 72.1725Z" fill="#F4DBB2"/>
<path d="M44.9175 74.6L44.0825 69.85L44.8025 69.7225L45.155 71.725L46.01 71.575L45.6575 69.5725L46.3775 69.445L47.2125 74.195L46.4925 74.3225L46.13 72.2525L45.275 72.4025L45.6375 74.4725L44.9175 74.6Z" fill="#F4DBB2"/>
<path d="M46.9448 69.31L48.9473 68.77L49.1273 69.435L47.8298 69.785L48.1798 71.0825L49.2098 70.805L49.3898 71.47L48.3598 71.7475L48.7273 73.11L50.0248 72.76L50.2048 73.425L48.2023 73.965L46.9448 69.3075V69.31Z" fill="#F4DBB2"/>
<path d="M49.3774 68.6125L50.0674 68.3775L51.6249 72.9425L50.9349 73.1775L49.3774 68.6125Z" fill="#F4DBB2"/>
<path d="M53.6771 66.8675L55.6296 71.2775L54.9621 71.5725L53.6246 68.5475L54.3396 71.8475L53.8746 72.055L51.9121 69.3075L53.2496 72.3325L52.5946 72.6225L50.6421 68.2125L51.5871 67.795L53.4121 70.355L52.7196 67.2925L53.6771 66.8675Z" fill="#F4DBB2"/>
<path d="M55.3975 67.975L56.4125 67.39L56.995 68.4L55.98 68.985L55.3975 67.975Z" fill="#F4DBB2"/>
<path d="M57.8223 66.4925L58.7823 65.82L59.4523 66.7725L58.4923 67.445L57.8223 66.4925Z" fill="#F4DBB2"/>
<path d="M60.1025 64.8025L60.9975 64.0475L61.7475 64.9375L60.8525 65.6925L60.1025 64.8025Z" fill="#F4DBB2"/>
<path d="M62.2275 62.9125L63.0525 62.08L63.88 62.9L63.055 63.7325L62.2275 62.9125Z" fill="#F4DBB2"/>
<path d="M64.1748 60.8475L64.9223 59.9475L65.8173 60.6925L65.0698 61.5925L64.1748 60.8475Z" fill="#F4DBB2"/>
<path d="M65.9346 58.6125L66.5996 57.65L67.5571 58.3125L66.8921 59.275L65.9346 58.6125Z" fill="#F4DBB2"/>
<path d="M67.4873 56.2375L68.0648 55.2175L69.0773 55.7925L68.4998 56.81L67.4873 56.235V56.2375Z" fill="#F4DBB2"/>
<path d="M68.8247 53.73L69.3097 52.665L70.3697 53.1475L69.8847 54.2125L68.8247 53.73Z" fill="#F4DBB2"/>
<path d="M69.9321 51.1125L70.3196 50.0075L71.4171 50.3925L71.0296 51.4975L69.9321 51.1125Z" fill="#F4DBB2"/>
<path d="M12.2276 46.5225C11.3326 46.8725 10.6476 47.3325 10.1726 47.905C9.71506 48.4575 9.50006 49.1225 9.52756 49.8975C9.52756 49.95 9.46006 49.9675 9.43256 49.9225C8.98006 49.15 8.36006 48.5025 7.57256 47.9825C6.75756 47.4425 5.83256 47.0275 4.79506 46.7325C4.74756 46.72 4.74506 46.655 4.79006 46.6375C5.63756 46.305 6.28756 45.83 6.74256 45.215C7.19256 44.6075 7.46756 43.9275 7.57256 43.17C7.58006 43.12 7.64256 43.11 7.66506 43.1525C8.06756 43.9 8.65506 44.56 9.42256 45.135C10.2026 45.7175 11.1351 46.15 12.2201 46.4275C12.2676 46.44 12.2726 46.505 12.2251 46.5225H12.2276Z" fill="#F4DBB2"/>
<path d="M68.105 44.8925C69.02 45.1875 69.73 45.6075 70.2375 46.1525C70.725 46.6775 70.98 47.3275 70.9975 48.1025C70.9975 48.155 71.07 48.17 71.0925 48.1225C71.5 47.325 72.08 46.6425 72.835 46.075C73.615 45.4875 74.515 45.02 75.535 44.665C75.58 44.65 75.58 44.585 75.535 44.57C74.67 44.2875 73.9925 43.85 73.5025 43.2625C73.02 42.6825 72.7025 42.0175 72.555 41.27C72.545 41.2225 72.4825 41.2125 72.46 41.2575C72.1 42.0275 71.555 42.72 70.82 43.34C70.075 43.9675 69.17 44.4525 68.1025 44.7925C68.055 44.8075 68.055 44.8725 68.1025 44.8875L68.105 44.8925Z" fill="#F4DBB2"/>
</g>
<defs>
<clipPath id="clip0_312_54">
<rect width="80" height="80" fill="white"/>
</clipPath>
</defs>
</svg>
