<svg xmlns="http://www.w3.org/2000/svg" id="Layer_1" data-name="Layer 1" viewBox="0 0 720.22 390.83"><defs><style>      .cls-1 {        fill: #F3703A;        stroke-width: 0px;      }    </style></defs><path class="cls-1" d="m505.18,189.4c-.56-.24-.99.56-.44.86l44.64,25.44c.64.37,1.39.43,2.05.24.67-.19,1.26-.61,1.63-1.27.76-1.36.2-3.09-1.21-3.75l-46.65-21.52Z"></path><rect class="cls-1" y="301.34" width="324.48" height="16.94"></rect><g><path class="cls-1" d="m103.41,234.1c0,10.48.08,20.43.45,25.71h-.53c-3.46-8.87-8.19-20.43-12.93-31.9h-26.45v21.16c-3.73-13.67-15.02-22.77-30.89-22.77-23.97,0-33.07,15.77-33.07,33.24,0,18.73,11.27,33.06,32.09,33.06,18.31,0,28.45-9.21,31.87-22.28v20.66h20.52v-9.05c0-14.52-.08-21.77-.68-28.04h.45c3.38,8.6,10.67,28.22,14.35,37.09h25.25v-63.08h-20.44v6.18Zm-70.49,41.84c-6.76,0-8.57-7.08-8.57-16.93,0-10.75,2.18-16.75,8.19-16.75,6.69,0,8.42,6,8.42,17.29,0,9.32-1.43,16.4-8.04,16.4Z"></path><path class="cls-1" d="m199.18,252.11h-19.61l-7.16,10.71-5.22-5.23c7.09-3.31,10.27-6.99,10.27-13.19,0-9.05-8.04-17.02-21.64-17.02-16.23,0-21.72,9.14-21.72,17.65,0,4.93,1.79,8.99,4.93,12.65-8.11,4.29-10.72,8.79-10.72,15.04,0,11.38,7.89,19.44,23.6,19.44,7.42,0,13.15-1.7,18.13-4.92l3.96,3.75h26.53l-17.26-17.29,15.91-21.6Zm-42.53-12.45c2.1,0,3.76,1.52,3.76,4.48,0,1.45-.5,3.35-2.89,5.27-2.75-2.09-4.02-3.89-4.02-6.07,0-2.33,1.43-3.67,3.16-3.67Zm-1.5,37.72c-5.11,0-8.19-2.87-8.19-7.08,0-1.27.37-2.5,1.3-3.71l10.64,10.08c-1.2.43-2.45.7-3.75.7Z"></path><path class="cls-1" d="m304.04,227.92v6.18c0,10.48.08,20.43.45,25.72h-.53c-3.46-8.87-8.19-20.43-12.93-31.9h-26.45v21.15c-3.73-13.67-15.02-22.77-30.89-22.77-23.97,0-33.07,15.77-33.07,33.24,0,18.73,11.27,33.06,32.09,33.06,18.31,0,28.45-9.21,31.87-22.28v20.66h20.52v-9.05c0-14.52-.08-21.77-.68-28.04h.45c3.38,8.6,10.67,28.22,14.35,37.09h25.25v-63.08h-20.44Zm-70.49,48.02c-6.76,0-8.57-7.08-8.57-16.93,0-10.75,2.18-16.75,8.19-16.75,6.69,0,8.42,6,8.42,17.29,0,9.32-1.43,16.4-8.04,16.4Z"></path></g><g><path class="cls-1" d="m320.34,41.14l-3.92,3.85s3.44,4.3,4.24,8.61c0,0-1.67,1.43-4.35,1.43h-6.05c-2.88,0-4.18-1.1-4.78-3.1-.61-2.02-2.1-7.63-2.1-7.63l-4.02,3.45s1.45,5.56,2.02,7.83c.55,2.29-.58,4.84-2.46,6.71-1.89,1.88-4.96,3.45-7.5,3.45s-6.68-1.26-6.68-1.26l-2.17,2.44s7.3,3.61,11.03,3.61c5.5,0,9.57-4.6,11.39-11.05,1.2,1.32,3.44,1.72,4.93,1.72h5.31c4.98,0,9.25-2.87,9.25-9.24s-4.15-10.83-4.15-10.83Z"></path><path class="cls-1" d="m290.5,43.38l-4.15,3.64s2.41,4.85,2.87,7.68c0,0-2,1.72-6.78.35.72-2.87,1.54-6.32,1.54-6.32l-2.46-.32s-1.15,2.79-2.25,5.12c-1.1,2.32-2.85,2.41-5.06,2.21-1.18-.11-2.43-.33-3.33-.52l3.04-7.09-2.66-.85s-1.5,2.43-2.63,4.26c-1.14,1.84-2.65,3.5-6.62,3.5h-35.92c-2.51,0-4.63-.54-5.2-3.86-.57-3.33-1.26-8.24-1.26-8.24l-4.43,2.77s.41,3.62,1.02,6.82c-.68.95-2.21,2.51-4.92,2.51h-5.28c-1.69,0-3.06-.84-3.06-3.4v-8.57c0-2.74-.99-6.02-2.13-7.91l-4.22,3.59c.6,1.06,1.04,2.06,1.4,3.04-1.39.68-3.96,1.95-5.42,2.71-2.05,1.06-3.48,2.76-4.16,4.3-.66,1.56-1.17,2.84-1.17,3.75s.57,2.71,4.02,3.78c3.45,1.07,6.23,1.13,6.23,1.13l1.54-3.23c.11,2.63.93,6.98,6.51,6.98h4.48c1.81,0,5.15-.27,7.79-3.59,1.12,1.84,3.2,3.59,6.65,3.59h37.84c2.03,0,3.56-.43,4.71-1.02,1.91.71,4.97,1.67,7.49,1.67,2.38,0,4.26-.58,5.53-1.66,1.2.74,3.17,1.61,5.83,1.61,4.6,0,7.41-3.66,7.41-8.81s-2.81-9.61-2.81-9.61Zm-91.46,8.7c-1.86-.02-5.77-.24-7.61-1.67,1.43-1.64,4.98-3.06,7.6-3.78,0,.13.02.25.02.36v5.09Z"></path><polygon class="cls-1" points="284.31 38.65 284.3 38.65 284.3 35.45 279.72 35.45 279.72 38.65 272.84 38.65 272.84 43.23 284.31 43.23 284.31 38.65"></polygon><rect class="cls-1" x="207.87" y="34.67" width="11.47" height="4.59"></rect><rect class="cls-1" x="96.45" y="28.07" width="11.47" height="4.59"></rect><rect class="cls-1" x="311.86" y="65.95" width="4.59" height="4.59"></rect><path class="cls-1" d="m146.73,47.45l4.02-3.45c1.45,4.01,3.14,9.71,1.44,15.49-1.89,6.43-5.89,11.05-11.4,11.05-3.74,0-11.03-3.61-11.03-3.61l2.17-2.44s4.14,1.26,6.68,1.26,5.61-1.58,7.5-3.45c3.85-3.82,2.84-10.19.61-14.84Z"></path><path class="cls-1" d="m131.37,46.07c.95.69,1.56.98,3.37.98h4.52c4.52,0,4.85,2.27,4.85,3.85,0,7.06-9.39,11.98-18.61,11.98-5.56,0-9.13-3.36-9.13-9.16s3.91-14.5,3.91-14.5l1.75,1.09s-1.09,4.3-1.7,7.31c-.6,2.99-1.4,9.08,6.62,9.08s13.19-4.05,13.19-4.05h-5.91c-4.05,0-6.12-1.61-6.12-5,0-6.73,6.21-13.4,11.17-13.4,3.53,0,3.39,3.39,2.55,6.57-6.79-1.88-9.39,3.06-10.48,5.25Z"></path><path class="cls-1" d="m158.69,28.07s2.64,2.32,2.49,8.49c-.15,6.17-.46,12.45-.49,14.92-.03,2.46.85,3.55,3.26,3.55h8.13c2.27,0,4.01-.94,5.21-2.42-.64-3-2.61-6.02-10.77-10.62,0,0,1.96-5.54,2.37-6.45,1.31-.91,6.33-3.62,16.84-6.8l-1.05,5.57c-3.14,1.05-9.33,2.99-12.83,5.18,2.98,1.81,9.05,6.55,9.05,12.58s-4.83,9.15-10.04,9.15h-7.34c-1.86,0-7.38-.62-7.11-8.79.28-8.17.38-9.79.41-12.6.03-2.81-.35-4.87-1.96-7.35l3.84-4.4Z"></path><path class="cls-1" d="m102.33,35.9c-4,0-6.97,6.18-6.97,10.61s2.08,6.16,5.91,6.16c1.81,0,3.4-.17,4.57-.33-.03.46-.08.93-.13,1.42,0,0-2.17,1.26-6.6,1.26h-12.09c2.82-4.63,2.11-8.07.6-10.09-1.54-2.06-4.38-4.59-4.38-4.59,0,0-5.23,8.05-7.03,14.53-.96.09-2.02.14-3.18.14h-40.59c-.57-4.57-2.74-10.59-7.72-10.59-3.53,0-6.71,5.89-6.71,10.32,0,6.4,4.03,6.45,7.33,6.45h2.58c-.24.38-.55.74-.9,1.09-1.89,1.88-4.96,3.45-7.5,3.45s-6.68-1.26-6.68-1.26l-2.17,2.44s7.3,3.61,11.03,3.61c4.48,0,8.89-4.11,10.39-9.33h36.4c3.61,0,5.69-.19,7.09-.43.33,5.34,3.03,10.39,7.68,10.39,5.67,0,6.46-5.82,5.44-9.96h10.12c5.96,0,11.14-2.82,11.14-12.64,0-7.2-3.61-12.66-7.61-12.66Zm-1.23,11.24c-2.1,0-2.41-1.04-2.41-1.95s.57-3.64,2.68-3.64c1.5,0,3.63,1.39,4.32,5.59h-4.59Zm-75.71,7.88c-3.11,0-4.15-.44-4.15-1.54s.65-3.23,2.46-3.23,3.99,1.94,4.95,4.78h-3.26Zm57.9-7.77s1.5,1.32,2.06,3.23c0,0-.65,2.43-5.34,3.72.69-2.41,1.83-4.85,3.28-6.95Zm1.1,18.27c-3.36,0-4.9-2.33-5.11-5.55.31-.03.66-.05,1.09-.05,4.24,0,5.63,2.85,5.63,4.24s-.93,1.36-1.61,1.36Z"></path><path class="cls-1" d="m3.1,40l-2.35,5.47c.69.14,1.56.36,2.49.68-.8,1.31-3.25,5.63-3.25,8.98,0,4,2.06,6.07,4.62,6.07h4.43c5.22,0,5.53-3.83,5.53-7.61,0-10.84-11.47-13.59-11.47-13.59Zm2.14,15.41c-1.92,0-3.5-2.74,1.66-7.44,2.08,1.48,3.75,3.8,3.75,7.44h-5.41Z"></path></g><g><path class="cls-1" d="m21.76,355.91c-1.21,4.43-4.39,7.76-10.12,7.76-7.67,0-11.64-6.17-11.64-13.82s3.93-13.99,11.72-13.99c5.9,0,9.24,3.43,10.07,7.96h-2.68c-1.08-3.26-3.15-5.54-7.51-5.54-6.19,0-8.76,5.83-8.76,11.51s2.49,11.47,8.91,11.47c4.17,0,6.16-2.33,7.33-5.35h2.69Z"></path><path class="cls-1" d="m48.98,349.62c0,7.42-3.92,14.11-12.09,14.11-7.53,0-11.85-6.16-11.85-13.94s4.27-13.94,12.13-13.94c7.28,0,11.81,5.79,11.81,13.76Zm-21.1.06c0,6.06,3.14,11.61,9.14,11.61,6.47,0,9.13-5.48,9.13-11.62s-3.01-11.36-9.08-11.36c-6.38,0-9.18,5.41-9.18,11.38Z"></path><path class="cls-1" d="m53.85,336.25h16.32v2.45h-13.67v9.57h12.82v2.45h-12.82v12.62h-2.65v-27.1Z"></path><path class="cls-1" d="m74,336.25h16.32v2.45h-13.67v9.57h12.82v2.45h-12.82v12.62h-2.65v-27.1Z"></path><path class="cls-1" d="m110.03,350.32h-13.23v10.57h14.51l-.37,2.45h-16.79v-27.1h16.53v2.45h-13.88v9.17h13.23v2.45Z"></path><path class="cls-1" d="m131.42,350.32h-13.23v10.57h14.51l-.37,2.45h-16.79v-27.1h16.53v2.45h-13.88v9.17h13.23v2.45Z"></path><path class="cls-1" d="m148.53,351.01v12.33h-2.69v-27.1h9.79c5.27,0,8.07,2.93,8.07,7.18,0,3.48-1.97,5.67-4.71,6.36,2.45.63,4.27,2.37,4.27,7.02v1.1c0,1.88-.12,4.35.34,5.44h-2.65c-.48-1.16-.41-3.31-.41-5.73v-.64c0-4.18-1.17-5.96-6.05-5.96h-5.96Zm0-2.42h6.05c4.34,0,6.31-1.68,6.31-5.01,0-3.13-1.97-4.9-5.82-4.9h-6.54v9.91Z"></path><path class="cls-1" d="m191.38,349.62c0,7.42-3.92,14.11-12.09,14.11-7.54,0-11.84-6.16-11.84-13.94s4.27-13.94,12.13-13.94c7.28,0,11.81,5.79,11.81,13.76Zm-21.1.06c0,6.06,3.14,11.61,9.14,11.61,6.47,0,9.13-5.48,9.13-11.62s-3.01-11.36-9.08-11.36c-6.38,0-9.19,5.41-9.19,11.38Z"></path><path class="cls-1" d="m199.05,354.54l-3.1,8.81h-2.69l9.5-27.1h3.25l9.91,27.1h-2.89l-3.18-8.81h-10.79Zm10.02-2.45c-2.73-7.63-4.17-11.46-4.72-13.39h-.04c-.64,2.16-2.26,6.86-4.46,13.39h9.22Z"></path><path class="cls-1" d="m220.63,355.95c.75,3.44,3,5.4,7.08,5.4,4.48,0,6.22-2.25,6.22-5.02,0-2.9-1.3-4.63-6.84-6.03-5.83-1.49-8.12-3.49-8.12-7.36s2.67-7.08,8.4-7.08,8.48,3.68,8.83,7.09h-2.75c-.54-2.68-2.21-4.72-6.2-4.72-3.52,0-5.46,1.67-5.46,4.49s1.62,3.87,6.34,5.07c7.43,1.89,8.62,4.92,8.62,8.28,0,4.16-2.96,7.6-9.18,7.6-6.58,0-9.18-3.85-9.69-7.72h2.75Z"></path><path class="cls-1" d="m246.74,338.7h-8.66v-2.45h20.05v2.45h-8.68v24.64h-2.71v-24.64Z"></path><path class="cls-1" d="m277.09,350.32h-13.23v10.57h14.51l-.37,2.45h-16.79v-27.1h16.53v2.45h-13.88v9.17h13.23v2.45Z"></path><path class="cls-1" d="m285.29,351.01v12.33h-2.69v-27.1h9.79c5.27,0,8.07,2.93,8.07,7.18,0,3.48-1.97,5.67-4.71,6.36,2.45.63,4.27,2.37,4.27,7.02v1.1c0,1.88-.12,4.35.34,5.44h-2.66c-.48-1.16-.41-3.31-.41-5.73v-.64c0-4.18-1.17-5.96-6.05-5.96h-5.96Zm0-2.42h6.05c4.34,0,6.31-1.68,6.31-5.01,0-3.13-1.97-4.9-5.82-4.9h-6.53v9.91Z"></path><path class="cls-1" d="m311.97,363.35v-10.07c0-.24-.07-.52-.16-.66l-9.31-16.36h3.09c2.52,4.51,6.74,12.06,7.9,14.24,1.13-2.16,5.43-9.69,8.09-14.24h2.91l-9.67,16.47c-.08.16-.13.31-.13.63v9.99h-2.71Z"></path></g><g><polygon class="cls-1" points="196.47 117.38 205.86 188.3 218.82 184.99 218.82 133.46 223.52 129.81 218.72 106.29 196.47 117.38"></polygon><path class="cls-1" d="m.84,168.58s0,.06,0,.09l.06.75h0c.29,2.99,1.15,5.91,2.58,8.59,4,7.48,11.79,12.15,20.27,12.15h17.89c16.44-1,28.65-15.63,26.7-31.99l-3.21-39.08-20.3,10.68-13.27-13.27-13.43,13.43h0s-18.15,6.7-18.15,6.7l.84,31.96Zm30.74-25.23l13.25-13.25,6.66,22.71H18.26l-.1-22.88,13.42,13.42Z"></path><polygon class="cls-1" points="65.15 106.46 91.54 106.46 69.65 117.38 79.05 188.3 92 184.99 92 133.46 96.7 129.81 91.93 106.46 97.63 106.46 102.07 89.7 60.64 89.7 56.2 106.46 65.15 113.3 65.15 106.46"></polygon><path class="cls-1" d="m222.41,136.62l.84,31.96s0,.06,0,.09l.06.75h0c.29,2.99,1.15,5.91,2.58,8.59,4,7.48,11.79,12.14,20.27,12.14h17.89c16.44-1,28.65-15.63,26.7-31.99l-3.21-39.08-20.3,10.68-13.27-13.27-13.43,13.43h0s-18.15,6.7-18.15,6.7Zm44.83-6.53l6.66,22.71h-33.23l-.1-22.88,13.42,13.42,13.25-13.25Z"></path><polygon class="cls-1" points="287.56 106.46 314.22 106.46 292.33 117.38 301.72 188.3 314.68 184.99 314.68 133.46 319.37 129.81 314.61 106.46 320.05 106.46 324.48 89.7 283.05 89.7 278.62 106.46 287.56 113.3 287.56 106.46"></polygon><path class="cls-1" d="m167.47,130.37c-2.73-4.81-8.77-6.7-13.77-4.19-5,2.5-7.11,8.47-4.89,13.54l18.66-9.35Z"></path><path class="cls-1" d="m163.07,144.89c5-2.51,7.11-8.47,4.89-13.54l-18.66,9.34c2.73,4.81,8.77,6.7,13.77,4.19Z"></path><path class="cls-1" d="m97.29,145.99v27.51c0,9.19,7.45,16.65,16.64,16.65h8.96c8.22,0,15.93-3.98,20.69-10.68l1.67,10.68h23.21c16.44-1.01,28.65-15.63,26.7-31.99l-3.21-39.08-20.4,10.73,6.74,22.99h-34.87l-2.85-33.01-16.66,8.88,5.57,24.14h-26.51v-6.81h-5.68Z"></path><polygon class="cls-1" points="222.41 89.7 191.95 96.88 191.95 108.75 222.41 101.57 222.41 89.7"></polygon><rect class="cls-1" y="200.63" width="324.48" height="16.94"></rect></g><path class="cls-1" d="m570.69,8.78c-86.92,0-140.92,71.51-140.92,186.63s54,186.63,140.92,186.63,140.92-71.51,140.92-186.63S657.61,8.78,570.69,8.78Zm28.98,345.24c-.54.9-1.89.85-2.37-.08-6.93-13.33-.13-33.41,6.45-46.61.1-.19.14-.39.14-.57,0-.54-.36-1.06-.92-1.23-.54-.17-1.12.03-1.43.5-1.04,1.54-2.79,2.42-4.58,2.42-.86,0-1.73-.2-2.55-.63-2.3-1.19-3.48-3.81-2.83-6.31,3.95-15.14,6.05-28.76,7.08-36.92,5.74,7.42,11.76,14.62,18,21.52-.6,10.39-3.56,45.42-16.99,67.92Zm-15.2-230.73c-.24-.53-.77-.84-1.32-.84-.26,0-.53.07-.76.21-22.95,14.55,4.21,110.19,45.78,171.49-30.8-31.4-56.14-69.73-70.89-104.62-.79-1.83-3.33-1.96-4.3-.23-.43.74-.4,1.65.02,2.39,2.3,4.12,3.66,8.51,4.03,12.82.61,7.2-1.52,14.15-6.54,19.14-5.02,4.99-11.99,7.08-19.18,6.42-7.2-.67-14.62-4.08-20.59-10.07-11.92-11.99-13.45-29.8-3.4-39.79,5.02-4.99,11.99-7.08,19.18-6.42,5.89.54,11.97,2.93,17.27,7.12,1.62,1.27,3.84,1.5,5.62.46,1.66-.96,2.63-2.72,2.63-4.55,0-.57-.1-1.14-.29-1.7-9.79-28.24-11.64-53.09-2.56-68.48,2.59-4.39,3.86-9.66,3.33-14.72-.92-8.9-6.95-16.44-15.42-19.3l-43.69-14.71h43.99c-.83,1.76-1.46,3.68-1.87,5.74-.16.79.4,1.54,1.2,1.66.07.01.14.01.2.01.69,0,1.27-.5,1.42-1.19,5.36-26.62,49.01-20.83,70.64,1.95-11.59,3.63-13.39,15.72-6.67,28.34-7.81-5.23-15.65-6.85-22.36-6.85-1.24,0-2.44.06-3.6.16-.8.07-1.36.81-1.26,1.6.1.72.7,1.22,1.4,1.22h.14c13.23-1.14,30.36,4.02,43.72,30.06,14.92,29.04,19.99,115.54,19.99,185.37-38.57-49.03-68.66-133.52-62.72-168.56,1.06-6.2,3.18-10.34,6.33-12.33.6-.39.81-1.14.53-1.79Z"></path><path class="cls-1" d="m570.69,0c-92.23,0-149.53,74.88-149.53,195.41s57.3,195.42,149.53,195.42,149.53-74.88,149.53-195.42S662.92,0,570.69,0Zm0,384.96c-88.72,0-143.83-72.63-143.83-189.54S481.97,5.87,570.69,5.87c88.72,0,143.83,72.63,143.83,189.54s-55.11,189.54-143.83,189.54Z"></path><path class="cls-1" d="m559.71,57.04c-3.18,0-5.77,2.59-5.77,5.77s2.59,5.76,5.77,5.76,5.77-2.57,5.77-5.76-2.58-5.77-5.77-5.77Z"></path></svg>