<?xml version="1.0" encoding="UTF-8"?>
<svg xmlns="http://www.w3.org/2000/svg" viewBox="0 0 446.14 158.57" fill="none" role="img" aria-label="چاباتا">
  <g fill="#4f8f5e" fill-rule="evenodd" transform="translate(-74.57 -341.66)">
<rect fill="#4f8f5e" x="163.7" y="365.56" width="55.81" height="20.28"/>
    <polygon  points="99.69 425.76 99.5 424.79 99.17 423.24 99.17 423.24 98.91 421.36 98.85 420.65 98.85 345.66 78.57 345.66 78.57 420.65 78.57 421.36 78.7 423.24 78.89 424.79 78.89 424.79 79.02 425.76 79.02 425.76 79.47 428.15 79.47 428.15 79.99 430.54 79.99 430.54 80.25 431.51 80.25 431.51 80.63 432.8 80.63 432.8 81.28 434.8 81.28 434.8 81.34 434.93 81.34 434.93 82.18 436.87 82.57 437.97 82.57 437.97 82.96 438.74 82.96 438.74 83.73 440.36 84.12 441.07 84.12 441.07 84.57 441.84 84.57 441.84 85.28 443.07 85.8 444.04 85.8 444.04 85.87 444.17 85.87 444.17 86.45 444.94 86.45 444.94 86.83 445.52 87.09 445.91 87.09 445.91 87.16 446.04 87.16 446.04 87.74 446.88 87.74 446.88 89.87 449.59 89.87 449.59 92.2 452.11 94.72 454.44 94.72 454.44 97.36 456.63 100.21 458.64 103.11 460.38 106.21 461.93 109.38 463.22 112.67 464.32 112.67 464.32 115.97 465.22 115.97 465.22 119.33 465.81 119.33 465.81 122.75 466.19 122.75 466.19 126.17 466.32 171.84 466.32 175.26 466.19 178.69 465.81 182.05 465.22 185.41 464.32 185.41 464.32 188.64 463.22 191.8 461.93 194.9 460.38 197.87 458.64 200.65 456.63 203.3 454.44 203.3 454.44 205.82 452.11 208.14 449.59 210.27 446.88 210.86 446.04 210.86 446.04 210.92 445.91 210.92 445.91 211.18 445.52 211.18 445.52 211.57 444.94 211.57 444.94 212.15 444.17 212.15 444.17 212.21 444.04 212.21 444.04 212.73 443.07 212.73 443.07 213.5 441.84 213.96 441.07 214.28 440.36 214.28 440.36 215.05 438.74 215.44 437.97 215.44 437.97 215.89 436.87 216.67 434.93 216.73 434.8 217.38 432.8 217.38 432.8 217.77 431.51 217.77 431.51 218.03 430.54 218.61 428.15 218.99 425.76 218.99 425.76 219.19 424.79 219.32 423.24 219.51 421.36 219.51 420.65 219.51 395.98 199.23 395.98 199.23 420.65 199.1 421.36 198.91 423.24 198.58 424.79 198.32 425.76 198.32 425.76 197.55 428.15 196.58 430.54 196 431.51 196 431.51 195.35 432.8 194 434.8 193.93 434.93 192.25 436.87 191.22 437.97 191.22 437.97 190.51 438.74 188.51 440.36 188.51 440.36 187.54 441.07 186.44 441.84 186.44 441.84 184.18 443.07 182.11 444.04 181.85 444.17 181.85 444.17 179.4 444.94 176.94 445.52 176.94 445.52 174.42 445.91 171.84 446.04 126.17 446.04 123.65 445.91 121.13 445.52 121.13 445.52 118.62 444.94 118.62 444.94 116.16 444.17 115.97 444.04 113.84 443.07 111.64 441.84 111.64 441.84 110.48 441.07 109.51 440.36 107.57 438.74 106.79 437.97 105.76 436.87 104.15 434.93 104.02 434.8 102.72 432.8 102.01 431.51 102.01 431.51 101.5 430.54 100.46 428.15 100.46 428.15 99.69 425.76"/>
<polygon  points="376.54 431.05 376.28 430.28 375.76 428.08 375.76 427.89 375.76 345.66 355.48 345.66 355.48 427.89 355.55 428.08 355.55 428.08 355.8 430.28 355.8 430.28 355.87 431.05 355.87 431.05 356.13 432.41 356.13 432.41 356.51 434.22 356.58 434.48 357.1 436.42 357.35 437.32 357.35 437.32 357.68 438.22 357.68 438.22 358.26 439.84 358.45 440.36 358.9 441.32 359.49 442.68 359.81 443.26 360.07 443.78 360.58 444.68 360.91 445.33 360.91 445.33 361.17 445.78 361.29 446.04 361.29 446.04 361.36 446.1 361.81 446.81 363.1 448.82 363.62 449.46 365.11 451.34 365.69 452.05 367.24 453.73 367.88 454.37 369.56 455.99 370.34 456.57 372.08 457.99 372.08 457.99 372.86 458.57 374.73 459.8 375.57 460.32 375.57 460.32 377.51 461.48 378.41 461.87 378.41 461.87 380.41 462.83 380.41 462.83 381.38 463.22 383.45 464 383.45 464 384.42 464.32 386.49 464.97 387.58 465.16 389.65 465.68 390.75 465.81 392.82 466.13 394.11 466.19 396.05 466.32 472.07 466.32 475.37 466.19 475.37 466.19 476.08 466.13 478.73 465.81 478.73 465.81 479.57 465.68 481.96 465.16 481.96 465.16 482.86 464.97 485.19 464.32 486.09 464 488.35 463.22 488.35 463.22 489.26 462.83 491.45 461.87 492.29 461.48 494.36 460.32 495.2 459.8 497.2 458.57 497.98 457.99 499.91 456.57 500.63 455.99 502.43 454.37 503.08 453.73 504.82 452.05 504.82 452.05 505.34 451.34 506.96 449.46 507.47 448.82 508.96 446.81 509.41 446.1 509.47 446.04 509.47 446.04 509.54 445.91 509.73 445.59 510.12 445.01 510.64 444.17 510.77 443.97 511.15 443.13 511.8 441.91 512.32 441 512.51 440.48 512.51 440.48 513.22 438.87 513.61 437.97 513.61 437.97 513.93 437.13 514.58 435.19 514.77 434.8 515.16 433.12 515.16 433.12 515.61 431.57 515.74 430.99 516.13 428.73 516.26 428.28 516.26 428.28 516.45 426.4 516.58 424.98 516.64 424.01 516.71 421.62 516.71 420.33 516.64 417.94 516.58 417.04 516.45 415.62 516.26 413.68 516.13 413.29 515.74 411.03 515.61 410.45 515.16 408.83 514.77 407.22 514.58 406.83 513.93 404.89 513.61 404.05 513.61 404.05 513.22 403.08 512.51 401.47 512.32 400.95 511.8 400.05 511.15 398.82 510.77 398.05 510.64 397.79 510.12 397.01 509.73 396.43 509.54 396.04 509.47 395.98 509.47 395.98 508.96 395.2 506.96 392.49 504.82 389.97 502.43 387.58 499.91 385.45 497.2 383.45 494.36 381.64 491.45 380.09 488.35 378.8 485.19 377.63 481.96 376.79 478.73 376.15 475.37 375.83 472.07 375.7 441.69 375.7 438.33 375.83 435.04 376.15 431.74 376.79 428.51 377.63 425.35 378.8 422.31 380.09 419.34 381.64 416.5 383.45 413.85 385.45 411.33 387.58 408.94 389.97 406.75 392.49 406.75 392.49 404.81 395.2 404.29 395.98 404.29 395.98 404.23 396.04 404.03 396.43 403.65 397.01 403.64 397.01 403.13 397.79 403 398.05 402.55 398.82 401.9 400.05 401.9 400.05 401.45 400.95 401.19 401.47 400.48 403.08 400.48 403.08 400.09 404.05 400.09 404.05 399.83 404.89 399.12 406.83 399.12 406.83 398.99 407.22 398.54 408.83 398.15 410.45 398.03 411.03 397.57 413.29 397.51 413.68 397.51 413.68 397.31 415.62 397.12 417.04 397.12 417.94 396.99 420.33 396.99 425.76 417.27 425.76 417.27 420.33 417.4 417.94 417.53 417.04 417.79 415.62 418.24 413.68 418.24 413.68 418.37 413.29 419.15 411.03 419.41 410.45 420.18 408.83 421.15 407.22 421.41 406.83 422.83 404.89 422.83 404.89 423.6 404.05 423.6 404.05 424.44 403.08 426.19 401.47 426.9 400.95 428.13 400.05 430.19 398.82 431.94 398.05 432.39 397.79 434.59 397.01 436.91 396.43 439.3 396.04 441.69 395.98 472.08 395.98 474.46 396.04 476.79 396.43 479.12 397.01 481.38 397.79 481.83 398.05 481.83 398.05 483.57 398.82 483.57 398.82 485.57 400.05 486.8 400.95 486.8 400.95 487.51 401.47 489.32 403.08 490.16 404.05 490.16 404.05 490.94 404.89 492.36 406.83 492.55 407.22 493.58 408.83 494.29 410.45 494.62 411.03 495.39 413.29 495.52 413.68 495.97 415.62 496.17 417.04 496.36 417.94 496.36 417.94 496.43 420.33 496.43 420.33 496.43 421.62 496.36 424.01 496.17 424.98 495.97 426.4 495.52 428.28 495.52 428.28 495.39 428.73 494.62 430.99 494.62 430.99 494.29 431.57 493.58 433.12 493.58 433.12 492.55 434.8 492.36 435.19 490.94 437.13 490.16 437.97 490.16 437.97 489.32 438.87 487.51 440.48 486.8 441 486.8 441 485.57 441.91 483.57 443.13 483.57 443.13 481.83 443.97 481.38 444.17 479.12 445.01 476.79 445.59 474.46 445.91 472.08 446.04 396.05 446.04 393.85 445.78 391.59 445.33 391.59 445.33 389.46 444.68 387.39 443.78 386.62 443.26 385.45 442.68 383.64 441.32 382.55 440.36 381.97 439.84 380.41 438.22 379.77 437.32 379.77 437.32 379.12 436.42 377.96 434.48 377.83 434.22 376.99 432.41 376.99 432.41 376.54 431.05"/>
    <polygon  points="396.05 496.23 446.1 496.23 492.42 496.23 492.42 475.95 396.05 475.95 396.05 496.23"/>
<polygon  points="262.78 430.54 261.81 428.15 261.03 425.76 260.77 424.79 260.45 423.24 260.26 421.36 260.13 420.65 260.13 345.66 239.85 345.66 239.85 420.65 239.85 421.36 240.04 423.24 240.17 424.79 240.36 425.76 240.75 428.15 240.75 428.15 241.33 430.54 241.59 431.51 241.59 431.51 241.98 432.8 242.62 434.8 242.62 434.8 242.69 434.93 243.46 436.87 243.92 437.97 243.92 437.97 244.24 438.74 244.24 438.74 245.08 440.36 245.4 441.07 245.85 441.84 245.85 441.84 246.56 443.07 247.14 444.04 247.21 444.17 247.21 444.17 247.79 444.94 248.18 445.52 248.44 445.91 248.5 446.04 248.5 446.04 249.08 446.88 249.08 446.88 251.21 449.59 253.54 452.11 256.06 454.44 258.71 456.63 258.71 456.63 261.48 458.64 264.46 460.38 267.56 461.93 270.72 463.22 273.95 464.32 277.31 465.22 280.67 465.81 284.09 466.19 284.09 466.19 287.52 466.32 290.94 466.19 294.36 465.81 297.72 465.22 301.08 464.32 304.31 463.22 307.54 461.93 310.58 460.38 313.55 458.64 313.55 458.64 316.33 456.63 318.97 454.44 321.49 452.11 321.49 452.11 323.82 449.59 325.95 446.88 326.53 446.04 326.53 446.04 326.6 445.91 326.85 445.52 327.24 444.94 327.82 444.17 327.82 444.17 327.89 444.04 327.89 444.04 328.47 443.07 329.18 441.84 329.63 441.07 329.63 441.07 329.95 440.36 330.79 438.74 331.12 437.97 331.12 437.97 331.57 436.87 332.34 434.93 332.41 434.8 333.06 432.8 333.44 431.51 333.44 431.51 333.7 430.54 334.28 428.15 334.67 425.76 334.86 424.79 334.99 423.24 335.19 421.36 335.19 420.65 335.19 395.98 314.9 395.98 314.9 420.65 314.84 421.36 314.58 423.24 314.26 424.79 314 425.76 313.22 428.15 313.22 428.15 312.26 430.54 311.67 431.51 311.67 431.51 311.03 432.8 309.67 434.8 309.61 434.93 307.99 436.87 306.89 437.97 306.89 437.97 306.18 438.74 304.25 440.36 303.21 441.07 302.11 441.84 299.85 443.07 297.79 444.04 297.53 444.17 297.53 444.17 295.14 444.94 292.62 445.52 290.1 445.91 290.04 445.91 287.52 446.04 287.52 446.04 285 445.91 284.93 445.91 282.41 445.52 279.96 444.94 277.5 444.17 277.25 444.04 275.18 443.07 272.92 441.84 272.92 441.84 271.82 441.07 270.85 440.36 268.85 438.74 268.14 437.97 268.14 437.97 267.04 436.87 265.43 434.93 265.36 434.8 264 432.8 263.36 431.51 263.36 431.51 262.78 430.54"/>
    <rect fill="#4f8f5e" x="274.69" y="475.95" width="25.32" height="20.28"/>
  </g>
</svg>
