<?xml version="1.0" encoding="UTF-8"?>
<svg id="Layer_2" data-name="Layer 2" xmlns="http://www.w3.org/2000/svg" xmlns:xlink="http://www.w3.org/1999/xlink" viewBox="0 0 3116.13 2624.24">
  <defs>
    <style>
      .cls-1 {
        filter: url(#drop-shadow-1);
      }

      .cls-2 {
        fill: url(#linear-gradient-3);
      }

      .cls-3 {
        fill: url(#linear-gradient-2);
      }

      .cls-4 {
        fill: #77a741;
      }

      .cls-5 {
        fill: url(#linear-gradient);
      }

      .cls-6 {
        fill: #1b3257;
      }

      .cls-7 {
        fill: #fff;
      }
    </style>
    <filter id="drop-shadow-1" x="-31.38" y="-28.46" width="3201.6" height="2709.6" filterUnits="userSpaceOnUse">
      <feOffset dx="11.34" dy="14.17"/>
      <feGaussianBlur result="blur" stdDeviation="14.17"/>
      <feFlood flood-color="#0f2436" flood-opacity=".5"/>
      <feComposite in2="blur" operator="in"/>
      <feComposite in="SourceGraphic"/>
    </filter>
    <linearGradient id="linear-gradient" x1="482.78" y1="770.73" x2="955.88" y2="770.73" gradientUnits="userSpaceOnUse">
      <stop offset="0" stop-color="#80b4e2"/>
      <stop offset="1" stop-color="#346098"/>
    </linearGradient>
    <linearGradient id="linear-gradient-2" x1="1400.57" y1="682.12" x2="2434.97" y2="682.12" gradientUnits="userSpaceOnUse">
      <stop offset="0" stop-color="#80b4e2"/>
      <stop offset="1" stop-color="#346098"/>
    </linearGradient>
    <linearGradient id="linear-gradient-3" x1="2620.34" y1="2162.18" x2="780.25" y2="2162.18" xlink:href="#linear-gradient-2"/>
  </defs>
  <g id="Layer_1-2" data-name="Layer 1">
    <g class="cls-1">
      <path class="cls-7" d="M2974.13,1279.18h-196.04c-68.58-601.41-579.23-1068.6-1199-1068.6-54.97,0-109.07,3.7-162.08,10.81-13.03-97.54-36.56-163.71-37.72-166.92l-19.61-54.47-50.01,29.16c-2.21,1.29-54.99,32.29-120.87,90.14-38.59,33.88-73.95,70.19-105.12,107.92-35.7,43.22-65.96,88.47-90.15,134.69-308.29,171.4-533.63,473.94-600.65,832.24H42.51c-23.48,0-42.51,19.03-42.51,42.51v450.38c0,23.48,19.03,42.51,42.51,42.51h370.52c137.57,515.21,607.49,894.69,1166.06,894.69s1028.49-379.48,1166.06-894.69h328.48c23.48,0,42.51-19.03,42.51-42.51v-265.87c0-78.43-63.58-142-142-142Z"/>
      <path class="cls-6" d="M1820.42,1935.87c-50.91-49.64-134.5-53.64-193.15-8.21l-26.43-25.61,30.52,93.47,101.64,34.54-28.87-27.96c3.19-4.29,7.48-8.72,13.22-12.33,18.88-11.86,41.84-7.66,56.62,1.03,23.51,13.82,31.29,41.93,28.2,63.28-2.89,19.96-15.12,32.78-18.99,36.75-8.33,8.54-19.02,14.83-32.01,18.73-28.22,8.44-61.59-4.46-82.46-25.34-48.46-48.48-96.85-97.39-145.33-145.86-41.81-41.8-101.06-53.74-153.44-31.14-8.43,3.64-31.48,14.56-51.45,38.39-33.15,39.55-33.27,85.38-33.07,95.25.9,45.56,23.61,81.58,56.1,106.43,35.58,27.21,74.16,27.93,89.9,28.1,74.63.82,124.22-42.67,135.02-54.04-23.68-23.68-47.35-47.35-71.03-71.03-5.14,8.5-19,29.05-46.49,39.94-7.31,2.9-32.26,11.41-58.17-.99-22.85-10.93-38.6-34.54-39.43-58.06-.46-13.31,3.93-24.53,5.72-28.66,1.42-3.27,6.21-13.58,16.69-23.41,3.94-3.69,10.3-8.81,19.02-12.89,26.28-12.28,59.27-8.72,83.01,14.6,49.63,48.77,106.72,104.48,155.92,153.7,26.93,26.95,59.31,41.07,97.61,41.02,37.82.16,71.08-13.09,97.02-38.69,35.62-35.16,58.87-137.89-5.89-201.03Z"/>
      <path class="cls-6" d="M389.77,1390.98v-.1c-2.72-41.43-17.83-76.66-44.9-105.08-30.99-32.51-71-48.98-119.06-48.98H58.47c-4.68,0-8.15,1.15-10.55,3.67-1.52,1.47-3.26,4.19-3.04,8.81l.22,4.72c2.07,31.15.76,109.49.65,188.56v231.77c0,13.95,10.87,15.1,14.02,15.1h73.61c6.85,0,11.31-3.15,11.31-9.65,0-11.12.11-88.72.11-99.73,0-7.66,2.72-7.66,4.78-7.66,12.07,0,67.85,2.31,80.03,2.31,47.19,0,85.46-14.05,113.62-41.64,1.85-1.89,3.7-3.78,5.44-5.77,27.62-30.52,41.64-71.52,41.64-122.07,0-4.82-.11-9.65-.54-14.26ZM268.28,1467.78c-14.98,13.32-32.4,18.64-56.36,18.64-45.25,0-66.85,0-66.85,0,0,0,0-76.06,0-80.02v-78.29h60.19c28.32,0,45.48,5.6,60.85,18.82,24.16,20.78,24.45,52.7,24.53,60.96.08,9.03.37,39.68-22.36,59.89Z"/>
      <path class="cls-6" d="M1151.14,1351.25c0,26.03-1.63,50.08-4.79,71.42-1.41,11.73-8.59,13.02-11.63,13.02-4.67,0-11.63-.47-20.77-1.52-3.59-.47-6.85-.82-9.78-1.06-4.13-.35-7.5-.59-10.11-.59-24.57,0-39.69,7.15-46.1,21.7-2.82,6.45-3.37,21.46-3.37,60.04,0,0,.11,146.66.11,159.8,0,9.62-4.78,15.36-12.72,15.36h-59.58c-7.83,0-12.72-5.63-12.72-14.66,0-19,.22-49.09.76-87.44.11-11.02.32-21.34.32-30.84.33-23.22.44-41.75.44-55.35,0-11.61-.22-22.75-.65-33.42-1.52-42.1-6.09-77.28-13.7-104.84-.54-2.7-.87-4.46-.87-5.98,0-5.16,2.83-9.38,7.61-11.37l1.41-.47c8.26-1.17,16.74-2.46,25.33-3.87,1.85-.35,3.7-.59,5.65-.94,11.09-1.88,21.96-3.87,32.51-5.98.87-.23,2.28-.35,3.92.12,1.3.35,2.28.82,2.94,1.29,4.67,3.99,5.55,13.37,6.96,24.28.98,7.62,1.31,10.79,1.74,13.72l23.16-16.42c10-6.68,20.33-11.61,30.66-14.78,8.59-2.93,19.79-4.46,33.16-4.46,11.31,0,22.83.94,27.62,6.45,1.63,1.76,2.5,3.99,2.5,6.8Z"/>
      <path class="cls-6" d="M1442.33,1386.76c-30.44-35-68.71-52.72-113.62-52.72-39.14,0-73.39,13.32-101.88,39.85-4.24,3.95-8.48,8.24-12.51,12.87-27.18,31.38-42.18,69.2-44.36,112.66-.32,3.95-.43,7.9-.43,11.97,0,48.43,15.11,90.42,44.79,124.52,30.55,35.45,68.93,53.51,114.38,53.51s83.5-18.17,113.95-53.85c29.79-34.32,44.91-76.43,44.91-124.86s-15.22-89.97-45.23-123.95ZM1387.31,1578.33c-15.77,19.87-35.01,29.46-58.61,29.46s-42.73-9.6-58.71-29.46c-15.11-18.74-22.72-41.32-22.72-66.94s7.5-48.77,22.4-67.28c15.76-19.19,35.12-28.56,59.04-28.56s43.06,9.48,58.61,28.9c14.89,18.29,22.5,40.87,22.5,66.94s-7.61,48.2-22.5,66.94Z"/>
      <path class="cls-6" d="M1965.16,1605.7c-.2,3.38-1.04,6.84-6.75,13.58-9.38,11.07-19.15,20.83-29.64,29.28-33.27,27.17-72.18,40.85-116.13,40.85-60.08,0-108.87-22.94-145.06-68.12-33.47-41.86-50.4-94.89-50.4-157.37s17.24-115.81,51.31-158.08c36.49-45.78,85.38-69.03,145.26-69.03,46.07,0,84.67,12.38,115.12,36.93,9.78,7.75,18.65,16.8,26.71,27.07,3.93,5.23,6.08,9.32,5.72,14.26-.32,4.42-3.16,8.25-17.25,31.67-7.92,13.16-11.88,19.34-14.82,23.64-2.68,3.92-5.4,4.79-7.32,4.79-3.02,0-7.16-1.31-21.57-16.4-11.19-11.67-21.78-20.63-31.45-26.36-16.03-9.36-35.72-14.09-53.33-14.09s-33.28,3.46-49.24,13.42c-38.44,23.99-56.69,77.81-56.69,128.77,0,29.72,3.22,96.16,55.49,131.95,19.41,13.29,41.79,14.84,49.84,14.84,15.49,0,36.19-4.73,53.12-14.19,11.29-6.14,22.93-15.24,34.78-26.66,16.22-15.65,17.84-16.3,20.26-16.3,1.51,0,2.81-.16,5.65,3.22,6.35,7.58,13.01,15.72,19.04,23.26,14.88,18.61,17.81,21.43,17.35,29.07Z"/>
      <path class="cls-6" d="M2076.3,1277.53s0,35.58-.11,129.41v269.53c0,9.57-5.44,12.94-10.55,12.94h-70.67c-4.46,0-8.92-2.17-10.44-8.15-.44-1.41-.65-2.94-.65-4.78,0-9.68,0-71.43.11-146.02-.11-49.91,0-105.68,0-155.37v-97.48c0-3.18.72-5.61,2.11-7.31,2.34-2.88,6.12-3.75,9.96-3.75h65.35c6.09,0,9.68.33,12.28,3.04,1.3,1.41,2.83,3.91,2.61,7.94Z"/>
      <path class="cls-6" d="M2724.08,1353.72c-.22,0-.32-.11-.54-.11-16.09-3.49-25.33-5.74-31.53-5.74-8.7,0-11.96,12.48-14.13,25.98-.98,5.74-1.74,9.78-2.39,12.48-4.48-6.36-8.78-11-12.72-14.96-25.01-24.74-54.69-37.34-88.28-37.34-2.07,0-4.13,0-6.2.11-31.97,1.01-59.8,10.46-83.28,28.23-9.24,6.97-17.83,15.18-25.66,24.63-2.39,2.92-4.57,5.85-6.74,8.88-1.63,2.14-3.15,4.39-4.57,6.75-20.01,30.93-30.23,68.6-30.23,112.12,0,32.73,7.18,62.75,21.42,89.86,3.81,7.2,8.05,14.28,12.83,21.03,2.29,3.15,4.57,6.3,6.96,9.33.54.67,1.09,1.35,1.63,1.91,23.49,28.45,51.54,45.43,83.83,50.72,7.29,1.24,14.79,1.8,22.4,1.8,17.4,0,35.12-4.84,52.52-14.17,11.09-5.85,23.17-14.04,35.89-25.17,5.65-4.84,8.82-7.6,11.51-9.8.87,4.61,1.34,11.13,2.76,20.69,2.39,14.73,5.22,28.45,14.57,28.45,4.67,0,30.12-2.25,44.58-3.6,4.02-.34,7.17-.67,8.8-.79,4.35-.34,7.72-1.24,10.22-3.94,2.61-2.7,3.8-6.63,3.59-11.81,0,0-.14-85.13-.04-162.62.22-55.33-.22-108.86,3.15-130,.87-4.72,1.09-6.3,1.09-7.31,0-6.75-9.13-10.35-31.42-15.63ZM2641.56,1577.4c-15.76,20.24-34.68,30.03-57.95,30.03-8.26,0-15.87-1.12-23.05-3.37-13.81-4.39-25.77-12.93-36.21-25.98-15.33-18.89-23.16-41.61-23.16-67.36s7.83-48.92,23.16-68.15c13.48-16.76,29.46-26.43,48.49-29.01,3.48-.45,7.07-.67,10.76-.67,23.81,0,42.84,9.78,58.28,30.03,14.57,18.67,21.96,41.5,21.96,67.81s-7.5,47.8-22.29,66.69Z"/>
      <path class="cls-6" d="M3062.67,1468.67c0-43.33-5.54-73.96-16.96-93.76-15.66-27.14-44.58-40.88-86.11-40.88-21.63,0-44.25,7.8-67.63,23.53-14.57,11.65-26.96,21.78-37.07,30.28-.52-4.29-3.32-19.46-4.68-24.52-1.53-5.63-3.87-12.87-9.4-14.71-1.82-.61-4.17-.47-6.84-.11-6.74,1.07-18.11,3.24-28.48,5.74-7.56,1.81-14.32,3.64-18.88,5.27-.46.16-1.66.6-3.17,1.24-2.35.98-5.87,2.72-7.6,5.34-1.28,2.09-1.28,3.44-.69,6.93,3.81,17.59,3.7,74.06,3.81,132.99.22,76.99.02,152.24.02,162.61,0,2.94-.06,5.51.82,8.15,1.5,4.46,4.58,7.75,11.63,8.49,2.27.24,48.78,4.17,55.63,4.17,5.55,0,11.42-3.73,11.42-14.56v-210.37c4.67-8.27,13.26-20.85,27.29-31.91,10-7.69,24.68-19.1,45.12-18.52,4.67.12,25.98.7,38.49,17,7.39,9.67,9.46,23.99,9.46,52.99,0,9.43-1.19,177.99-1.19,189.41,0,14.91,8.48,15.96,11.09,15.96h62.41c7.28,0,11.85-5.12,11.85-13.51,0-15.61-.33-200.01-.33-207.23Z"/>
      <path class="cls-6" d="M927.52,1619.87c0,5-4.02,47.73-4.68,49.14-1.87,4.04-5.84,5.75-8.59,7.07-5.2,2.5-14.26,6.28-22.06,8.23-5.8,1.45-13.74,2.93-24.8,4.01-9.53.93-19.19,1.14-24.93,1.14-34.25,0-58.28-10.87-70.46-32.29-6.52-10.98-9.78-24.9-9.78-41.53,0,0-.01-168.08-.03-168.46-.23-3.82-1.66-4.21-5.04-4.22-.83,0-14.38.02-21.99.02-1.85-.22-5.22-.98-7.72-3.59-.44-.44-.76-.98-1.09-1.41-1.96-2.83-2.06-6.09-2.17-7.72-.33-4.78-.65-42.19-.22-49.36.22-3.7,1.85-8.81,5.87-11.74,1.52-1.3,4.02-2.28,5.55-2.5.87-.22,1.96-.33,3.04-.33h20.28c3.04,0,3.53-1.75,3.53-3.68,0-10.12.33-69.93.33-78.72,0-7.29,0-17.32,14.35-17.32,1.2,0,.11-1.3,57.41,8.92,7.28.98,11.74,5.65,11.74,12.5v74.71c0,4.02,1.09,4.02,3.15,4.02h67.61c7.94,0,10.76,5.11,10.76,9.35,0,2.83-.04,53.16-.04,56.42,0,2.72-.89,10.55-11.01,10.55,0,0-55.34.1-68.14-.06-1.61,0-2.33.67-2.33,2.24v120.69c0,9.79-.11,17.4-.11,23.16.11,7.39.44,11.96,1.63,14.46,3.7,8.26,10.55,12.72,21.53,13.59,1.41.11,2.93.22,4.46.22,0,0,1.77-.06,3.56-.35,6.13-.62,14.54-2.88,23.53-5.07,5.49-1.33,11.03-3.39,17.64-3.39,1.52,0,9.24.54,9.24,11.31Z"/>
      <path class="cls-6" d="M2382.97,1589.41c-6.2-11.94-9.03-18.08-12.83-19.2-.76-.22-3.13-.96-5.55.11-.61.27-1.64,1.07-1.96,1.34-3.15,2.68-6.3,5.36-9.46,8.15-16.09,13.17-33.16,22.32-51.21,27.57-6.85,2.01-13.81,3.46-20.99,4.35-5.33.67-10.76,1-16.31,1-12.83,0-25.12-3.24-36.86-9.38,1.96-2.79,4.13-5.69,6.41-8.37,1.41-1.67,2.72-3.35,4.24-5.02,1.19-1.34,2.28-2.57,3.48-3.8,36.1-39.85,87.74-64.74,145.04-64.74,2.22-.02,4.5-1.03,5.43-2.16,9.63-11.61,10.09-64.53-8.44-102.49-8.77-17.97-22.44-33.9-23.09-34.65-5.11-5.92-10.55-11.38-16.2-16.18-15.22-13.17-32.29-22.32-51.1-27.35-11.42-3.01-23.49-4.58-36.21-4.58-1.85,0-3.59,0-5.33.11-40.01,1.34-74.7,18.42-103.07,50.67-1.31,1.45-2.61,3.01-3.92,4.58-28.59,35.05-43.06,76.79-43.06,124,0,7.81.33,15.29,1.09,22.66,3.7,42.64,18.59,77.91,44.14,105.14,13.48,14.4,29.36,25.67,47.19,33.48,21.64,9.82,46.43,14.73,74.04,14.73,11.63,0,22.72-1,33.38-3.01,5-.89,9.9-2.12,14.57-3.46,26.42-7.26,49.69-21.09,69.59-41.3,2.07-2.12,4.02-4.24,5.98-6.47,4.68-5.25,6.42-8.37,6.42-11.38v-.67c-.33-3.91-6.42-15.74-12.51-27.79-.98-2.01-1.96-4.02-2.93-5.92ZM2182.26,1537.84c-2.61-14.29-2.82-26.34-2.5-34.93.44-9.38.44-22.32,6.52-37.5,4.57-11.5,8.81-21.88,18.7-32.7,14.13-15.4,29.79-22.99,47.73-23.1h.22c13.16,0,25.12,4.46,36.1,13.62.55.46,3.7,2.97,6.85,6.25,10.87,11.29,16.42,25.82,19.03,34.27-8.7,1.45-17.29,3.35-25.55,5.8-10.76,3.12-21.2,6.92-31.21,11.5-29.03,13.39-54.8,32.81-75.89,56.81Z"/>
      <path class="cls-6" d="M689.49,1589.41c-6.2-11.94-9.03-18.08-12.83-19.2-.76-.22-3.13-.96-5.55.11-.61.27-1.64,1.07-1.96,1.34-3.15,2.68-6.3,5.36-9.46,8.15-16.09,13.17-33.16,22.32-51.21,27.57-6.85,2.01-13.81,3.46-20.99,4.35-5.33.67-10.76,1-16.31,1-12.83,0-25.12-3.24-36.86-9.38,1.96-2.79,4.13-5.69,6.41-8.37,1.41-1.67,2.72-3.35,4.24-5.02,1.19-1.34,2.28-2.57,3.48-3.8,36.1-39.85,87.74-64.74,145.04-64.74,2.22-.02,4.5-1.03,5.43-2.16,9.63-11.61,10.09-64.53-8.44-102.49-8.77-17.97-22.44-33.9-23.09-34.65-5.11-5.92-10.55-11.38-16.2-16.18-15.22-13.17-32.29-22.32-51.1-27.35-11.42-3.01-23.49-4.58-36.21-4.58-1.85,0-3.59,0-5.33.11-40.01,1.34-74.7,18.42-103.07,50.67-1.31,1.45-2.61,3.01-3.92,4.58-28.59,35.05-43.06,76.79-43.06,124,0,7.81.33,15.29,1.09,22.66,3.7,42.64,18.59,77.91,44.14,105.14,13.48,14.4,29.36,25.67,47.19,33.48,21.64,9.82,46.43,14.73,74.04,14.73,11.63,0,22.72-1,33.38-3.01,5-.89,9.9-2.12,14.57-3.46,26.42-7.26,49.69-21.09,69.59-41.3,2.07-2.12,4.02-4.24,5.98-6.47,4.68-5.25,6.42-8.37,6.42-11.38v-.67c-.33-3.91-6.42-15.74-12.51-27.79-.98-2.01-1.96-4.02-2.93-5.92ZM488.78,1537.84c-2.61-14.29-2.82-26.34-2.5-34.93.44-9.38.44-22.32,6.52-37.5,4.57-11.5,8.81-21.88,18.7-32.7,14.13-15.4,29.79-22.99,47.73-23.1h.22c13.16,0,25.12,4.46,36.1,13.62.55.46,3.7,2.97,6.85,6.25,10.87,11.29,16.42,25.82,19.03,34.27-8.7,1.45-17.29,3.35-25.55,5.8-10.76,3.12-21.2,6.92-31.21,11.5-29.03,13.39-54.8,32.81-75.89,56.81Z"/>
      <path class="cls-4" d="M1665.07,875.65s-113.52,144.7-284.33,181.91c-170.81,37.21-334.24-47.16-334.24-47.16,0,0,113.2-146.16,284.01-183.37,170.81-37.22,334.55,48.62,334.55,48.62Z"/>
      <g>
        <path class="cls-6" d="M922.23,467.49c15.06-10.44,30.37-20.52,45.94-30.24-.44,1.17-.86,2.33-1.28,3.5-3.97,11.04-7.64,22.28-11.01,33.69-1.7.96-3.4,1.93-5.09,2.91-1.15.66-2.29,1.32-3.44,1.99-1.45.84-2.89,1.68-4.33,2.53-2.17,1.27-4.33,2.55-6.48,3.84-2.03,1.21-4.06,2.44-6.08,3.66-14.99,9.1-29.73,18.57-44.2,28.4-2.21,1.5-4.42,3.01-6.62,4.53-1.3.9-2.61,1.8-3.91,2.71-1.44,1-2.87,2-4.3,3.02-.73.51-1.46,1.02-2.18,1.54-.89.63-1.78,1.26-2.66,1.89-1.18.84-2.35,1.67-3.51,2.52-6.15,4.42-12.24,8.9-18.27,13.46-1.04.77-2.08,1.55-3.11,2.36-1.71,1.28-3.42,2.59-5.11,3.9-1.12.85-2.23,1.71-3.35,2.59-1.42,1.09-2.84,2.2-4.25,3.32-1.85,1.44-3.7,2.9-5.54,4.36-.43.34-.86.68-1.29,1.04-2.04,1.62-4.08,3.26-6.11,4.91-.78.63-1.57,1.26-2.35,1.91-1.41,1.14-2.82,2.3-4.22,3.47-1.19.96-2.38,1.94-3.56,2.94-1.42,1.17-2.84,2.35-4.25,3.55-.62.51-1.24,1.04-1.86,1.57-.61.5-1.21,1.02-1.81,1.54-.24.19-.47.39-.71.6-1.11.93-2.22,1.88-3.33,2.84-.19.15-.37.31-.56.48-.88.75-1.76,1.51-2.64,2.27-.01,0-.03.02-.04.04-1.65,1.42-3.29,2.84-4.92,4.29-.82.7-1.64,1.42-2.45,2.14-1.47,1.29-2.94,2.59-4.4,3.91-1.05.92-2.1,1.86-3.14,2.8-1.67,1.49-3.33,3-4.98,4.52-.1.07-.19.16-.28.25-.73.65-1.45,1.31-2.17,1.98-.01,0-.02.01-.03.02-1.42,1.3-2.83,2.6-4.24,3.92-1.23,1.12-2.46,2.27-3.68,3.42-1.03.95-2.04,1.91-3.06,2.88-1.35,1.26-2.69,2.53-4.03,3.82-1.32,1.25-2.64,2.51-3.95,3.79-.16.14-.31.29-.47.46-.85.8-1.7,1.62-2.54,2.45-1.88,1.81-3.75,3.65-5.61,5.49-.63.62-1.26,1.25-1.89,1.87-1.83,1.81-3.65,3.62-5.46,5.46-.64.64-1.28,1.28-1.91,1.93-.1.09-.2.19-.28.29-.32.31-.63.62-.94.94-.11.11-.22.21-.32.32-.2.21-.41.42-.61.63-.88.88-1.75,1.77-2.61,2.66-.87.89-1.74,1.78-2.59,2.67-.08.07-.15.14-.2.21-1.59,1.63-3.17,3.27-4.74,4.92-.28.29-.56.58-.83.87-1.62,1.69-3.22,3.39-4.81,5.09-.88.92-1.75,1.85-2.61,2.78-.92.98-1.84,1.96-2.74,2.95-.79.84-1.57,1.68-2.34,2.53-.67.72-1.32,1.44-1.98,2.16-3.33,3.63-6.63,7.29-9.89,10.97-1.06,1.19-2.12,2.37-3.16,3.57-1.7,1.92-3.39,3.85-5.07,5.79-.66.75-1.3,1.5-1.95,2.26t-.01.01c-1.46,1.68-2.91,3.38-4.35,5.08-.44.52-.88,1.04-1.32,1.56-.23.25-.44.51-.65.76-1.25,1.47-2.5,2.95-3.72,4.43-.92,1.08-1.83,2.17-2.72,3.26-.97,1.16-1.93,2.32-2.88,3.49-1.17,1.4-2.33,2.81-3.47,4.23-.96,1.18-1.92,2.36-2.87,3.55-3.29,4.07-6.54,8.16-9.76,12.28-1.12,1.44-2.23,2.87-3.34,4.31-2.41,3.09-4.78,6.2-7.13,9.33-.59.77-1.17,1.55-1.75,2.33-.33.43-.65.85-.96,1.28-1.08,1.43-2.15,2.86-3.2,4.29l-1.35,1.83c-1.14,1.53-2.27,3.07-3.38,4.62-.98,1.33-1.95,2.67-2.92,4.01,0,.02-.03.04-.04.06-1.56,2.15-3.1,4.31-4.63,6.48-.64.89-1.27,1.78-1.9,2.68-.84,1.19-1.68,2.39-2.52,3.59-1.58,2.26-3.15,4.52-4.7,6.79-1.38,2.01-2.75,4.02-4.11,6.04-.25.35-.49.7-.72,1.06-1.23,1.81-2.45,3.63-3.65,5.45-.39.58-.78,1.16-1.15,1.74-1.67,2.51-3.33,5.03-4.97,7.57-1.65,2.53-3.28,5.08-4.91,7.63-.66,1.04-1.32,2.08-1.98,3.12-1.14,1.81-2.28,3.62-3.41,5.43-.19.29-.37.59-.55.88-1.02,1.65-2.04,3.3-3.06,4.95-1.45,2.36-2.9,4.73-4.33,7.11-1.13,1.88-2.26,3.77-3.38,5.66-.81,1.34-1.6,2.69-2.4,4.04-2.69,4.58-5.35,9.18-7.98,13.81-.49.87-.99,1.74-1.47,2.61-5.02,8.9-9.91,17.88-14.67,26.94-.77,1.47-1.54,2.94-2.31,4.42-.88,1.7-1.76,3.4-2.63,5.1-.76,1.5-1.53,2.99-2.28,4.49-1.14,2.25-2.27,4.5-3.38,6.75-.38.76-.76,1.51-1.13,2.27-.79,1.59-1.57,3.19-2.35,4.78-.75,1.57-1.51,3.15-2.27,4.72-2.6,5.38-5.14,10.79-7.63,16.23-1.44,3.14-2.87,6.29-4.28,9.45-3.66,8.17-7.21,16.39-10.65,24.67-.66,1.57-1.31,3.14-1.95,4.72-1.22,2.95-2.41,5.91-3.59,8.87l2.24-5.79c2.29-5.65,4.63-11.28,7-16.89,1.23-2.91,2.47-5.81,3.72-8.7.92-2.12,1.84-4.23,2.77-6.33.73-1.65,1.45-3.29,2.18-4.93,1.49-3.34,3-6.67,4.52-10,.76-1.66,1.52-3.32,2.29-4.97,1.4-3.03,2.82-6.05,4.24-9.06,4.24-8.94,8.59-17.82,13.05-26.63.62-1.23,1.24-2.45,1.87-3.67,5.8-11.36,11.78-22.61,17.94-33.74.88-1.6,1.76-3.18,2.65-4.77,17.15-30.67,35.67-60.47,55.47-89.32,1.7-2.49,3.42-4.97,5.14-7.44,8.29-11.88,16.79-23.59,25.5-35.12.74-.99,1.48-1.97,2.23-2.95,2.54-3.34,5.09-6.66,7.66-9.96.67-.87,1.35-1.74,2.03-2.61.74-.94,1.48-1.89,2.22-2.83,3.38-4.3,6.8-8.58,10.24-12.82,1.14-1.42,2.3-2.83,3.45-4.24,3.46-4.24,6.96-8.45,10.48-12.63,1.17-1.39,2.35-2.78,3.53-4.17,3.54-4.17,7.11-8.31,10.71-12.42,1.14-1.31,2.28-2.6,3.43-3.9.79-.9,1.58-1.8,2.38-2.69,1.19-1.35,2.4-2.7,3.6-4.04,17.52-19.54,35.69-38.48,54.49-56.77,1.01-.99,2.03-1.98,3.05-2.96,5.53-5.35,11.11-10.64,16.75-15.87,1.04-.97,2.09-1.94,3.14-2.91.82-.76,1.65-1.52,2.48-2.27,1.33-1.22,2.66-2.44,4-3.65,1.4-1.28,2.82-2.56,4.23-3.82,1.27-1.15,2.54-2.29,3.82-3.42,1.34-1.2,2.69-2.4,4.05-3.59,1.71-1.52,3.43-3.03,5.15-4.53,1-.87,2-1.74,3-2.6,1.71-1.49,3.43-2.97,5.15-4.44,1.02-.87,2.04-1.74,3.07-2.61,1.37-1.17,2.75-2.34,4.13-3.5,1.39-1.16,2.77-2.32,4.16-3.48,2.79-2.34,5.6-4.65,8.42-6.96,1.37-1.12,2.75-2.24,4.13-3.36,5.61-4.55,11.27-9.05,16.97-13.49,2.85-2.22,5.71-4.43,8.58-6.63,1.43-1.09,2.87-2.19,4.31-3.28,5.36-4.06,10.76-8.08,16.19-12.04,4.79-3.5,9.61-6.97,14.45-10.39,1.48-1.04,2.96-2.08,4.44-3.12,1.48-1.04,2.96-2.07,4.45-3.1Z"/>
        <path class="cls-6" d="M2666.54,1067.02h-201.79c-6.81,0-12.92-4.11-15.53-10.39-.01-.01-.01-.03-.02-.04-1.12-2.73-2.25-5.45-3.4-8.16-3.48-8.23-7.09-16.42-10.81-24.56,0-.01,0-.03-.02-.04-142.45-398.37-523.22-683.42-970.56-683.42-3.73,0-7.45.02-11.17.06-1.22,0-2.45.03-3.67.05-1.76.02-3.53.05-5.29.08-1.19.03-2.39.05-3.58.08-1.12.02-2.24.05-3.36.08-3.36.09-6.71.19-10.07.31-1.91.07-3.82.14-5.72.22-1.39.05-2.77.11-4.16.18-1.37.06-2.73.12-4.1.19-.19-21.93-1.25-44.15-3.17-66.57.57-.09,1.15-.17,1.72-.25,1.57-.23,3.13-.46,4.69-.67,1.5-.21,3-.42,4.5-.62,1.66-.23,3.31-.45,4.97-.66,4.04-.54,8.09-1.05,12.15-1.54,1.9-.23,3.79-.45,5.69-.67,1.9-.22,3.81-.44,5.72-.65,1.91-.21,3.82-.42,5.73-.62,1.91-.2,3.82-.4,5.74-.59,1.91-.19,3.83-.38,5.75-.56,5.93-.57,11.88-1.09,17.84-1.57,3.66-.29,7.34-.57,11.02-.83,5.79-.41,11.6-.77,17.41-1.09,1.56-.09,3.12-.17,4.69-.25,8.14-.42,16.3-.75,24.48-1,11.78-.35,23.6-.53,35.46-.53,76.9,0,152.04,7.54,224.72,21.91,2.75.54,5.5,1.1,8.25,1.67.88.17,1.75.35,2.63.54,2.78.57,5.55,1.16,8.32,1.76l.15.03c3.14.68,6.27,1.37,9.4,2.07.08.02.15.03.23.05,3.02.68,6.04,1.37,9.05,2.07.18.04.37.09.55.13,2.95.69,5.89,1.39,8.83,2.1.24.06.49.12.74.18,3.03.74,6.06,1.49,9.09,2.25.15.04.3.07.45.11,2.28.57,4.55,1.16,6.82,1.74.9.23,1.79.47,2.68.7,3.16.82,6.32,1.66,9.48,2.52,2.93.79,5.86,1.59,8.78,2.41,2.37.66,4.73,1.33,7.09,2,.99.28,1.99.57,2.98.86.53.15,1.07.3,1.6.46,2.33.68,4.65,1.36,6.97,2.05l.81.24c2.56.76,5.12,1.53,7.67,2.32.56.16,1.11.33,1.67.51,2.31.71,4.62,1.42,6.93,2.15.79.25,1.59.5,2.38.75,2.37.75,4.74,1.51,7.1,2.27.73.24,1.45.48,2.18.71,2.72.89,5.45,1.79,8.16,2.7.36.12.72.24,1.08.36,2.69.9,5.38,1.82,8.06,2.74,2.6.89,5.2,1.8,7.8,2.72,2.5.87,5,1.76,7.5,2.67,1.36.48,2.71.97,4.07,1.47,1.85.67,3.71,1.35,5.56,2.04,1.21.45,2.42.9,3.63,1.35,2.43.91,4.86,1.82,7.28,2.75.59.22,1.19.45,1.78.68,2.04.78,4.07,1.56,6.1,2.36.98.38,1.95.76,2.93,1.15,1.54.6,3.09,1.21,4.63,1.83,1.46.58,2.91,1.16,4.36,1.75.31.12.62.24.92.37,2.15.86,4.29,1.74,6.43,2.62,2.73,1.12,5.46,2.25,8.18,3.4,2.38,1,4.76,2.01,7.13,3.03,1.36.58,2.73,1.17,4.09,1.76,1.66.71,3.32,1.43,4.97,2.16,1.29.57,2.58,1.14,3.87,1.71,1.65.73,3.31,1.46,4.96,2.21,1.15.51,2.3,1.03,3.44,1.55,1.62.73,3.24,1.46,4.85,2.21,1.38.63,2.77,1.27,4.15,1.91.06.02.11.04.16.07,1.92.89,3.84,1.78,5.75,2.68,1.06.5,2.13,1,3.19,1.51,2.15,1.01,4.29,2.04,6.43,3.07,2.46,1.18,4.9,2.36,7.34,3.56,1.11.55,2.21,1.09,3.32,1.64.01,0,.02.01.02.01,2.16,1.06,4.31,2.13,6.45,3.21,1.75.87,3.5,1.76,5.24,2.65,1.47.74,2.94,1.49,4.4,2.24,1.24.64,2.48,1.28,3.72,1.93,1.76.91,3.52,1.82,5.27,2.75.73.37,1.46.76,2.19,1.15,2.14,1.13,4.28,2.26,6.41,3.41.48.25.97.51,1.45.78,2.33,1.25,4.65,2.5,6.97,3.77.7.38,1.41.77,2.11,1.17,2,1.08,3.99,2.19,5.97,3.3,1,.55,2,1.1,3,1.68,1.64.91,3.26,1.83,4.89,2.75,1.1.62,2.2,1.24,3.29,1.88,2.1,1.19,4.19,2.4,6.27,3.61,2.7,1.56,5.39,3.14,8.08,4.73.22.12.45.26.68.4,2.4,1.42,4.79,2.85,7.18,4.29.67.39,1.34.8,2.01,1.21,1.83,1.11,3.66,2.22,5.49,3.34,1.16.7,2.31,1.41,3.46,2.13,1.66,1.02,3.31,2.04,4.96,3.07.81.51,1.63,1.02,2.44,1.53,2.12,1.33,4.24,2.67,6.35,4.02.3.18.6.37.91.58,1.91,1.22,3.82,2.44,5.72,3.67,1.39.89,2.77,1.79,4.15,2.7,1.64,1.07,3.29,2.14,4.92,3.23.51.33,1.03.67,1.55,1.03,1.87,1.22,3.73,2.46,5.58,3.71,1.43.95,2.86,1.91,4.29,2.89,1.12.75,2.22,1.5,3.33,2.26,1.09.74,2.18,1.48,3.26,2.24,1.99,1.36,3.98,2.73,5.96,4.12.33.22.65.44.98.68,1.99,1.39,3.98,2.78,5.96,4.19.88.61,1.76,1.23,2.63,1.87,1.88,1.33,3.75,2.67,5.62,4.02.51.36,1.03.73,1.54,1.11,2.01,1.45,4.01,2.91,6.01,4.38.71.51,1.43,1.03,2.14,1.57,1.97,1.45,3.94,2.9,5.9,4.38.31.22.63.45.95.71,2.16,1.61,4.32,3.23,6.47,4.86.53.4,1.06.81,1.6,1.22,1.87,1.42,3.73,2.85,5.59,4.29.76.58,1.53,1.17,2.29,1.77,1.75,1.35,3.49,2.71,5.23,4.08.86.66,1.71,1.34,2.57,2.03,1.62,1.27,3.23,2.54,4.84,3.83.67.53,1.34,1.06,2.01,1.61,1.83,1.46,3.65,2.93,5.47,4.41.78.63,1.56,1.26,2.35,1.92,1.74,1.41,3.47,2.83,5.2,4.27.52.41,1.05.85,1.58,1.3,1.79,1.47,3.57,2.96,5.34,4.45.98.81,1.96,1.64,2.94,2.48,1.33,1.11,2.66,2.24,3.98,3.37,1.08.91,2.15,1.82,3.21,2.75,1.21,1.03,2.42,2.07,3.63,3.12,1.22,1.05,2.43,2.1,3.64,3.17,1.62,1.4,3.23,2.82,4.83,4.24.38.33.77.67,1.16,1.03,1.72,1.51,3.43,3.03,5.14,4.58,1,.88,1.99,1.77,2.99,2.68,1.26,1.13,2.52,2.27,3.78,3.42,1.13,1.02,2.25,2.05,3.37,3.09,1.13,1.02,2.25,2.05,3.37,3.1,1.32,1.21,2.64,2.43,3.95,3.67.94.87,1.88,1.75,2.81,2.64,1.24,1.14,2.47,2.31,3.7,3.48,1.29,1.22,2.58,2.44,3.86,3.68.86.81,1.71,1.63,2.57,2.46,1.41,1.35,2.81,2.71,4.21,4.08,1.09,1.04,2.17,2.1,3.25,3.17,1.03,1,2.06,2.01,3.08,3.03,1.02,1,2.04,2.01,3.06,3.03,1.53,1.52,3.06,3.04,4.58,4.58.65.65,1.3,1.3,1.95,1.96,1.34,1.35,2.68,2.71,4.01,4.08,1.34,1.36,2.67,2.72,3.99,4.09.41.41.82.83,1.22,1.26,2,2.06,3.98,4.12,5.95,6.2,1.99,2.08,3.96,4.16,5.92,6.26.62.65,1.24,1.31,1.85,1.97,1.28,1.36,2.55,2.73,3.81,4.1.99,1.06,1.97,2.12,2.94,3.19,1.37,1.48,2.73,2.97,4.08,4.46.65.71,1.3,1.43,1.94,2.15,1.35,1.48,2.68,2.96,4,4.44.87.96,1.73,1.93,2.58,2.89,1.27,1.42,2.53,2.85,3.79,4.28.95,1.08,1.9,2.16,2.84,3.25,1.07,1.21,2.12,2.42,3.17,3.63.89,1.02,1.78,2.05,2.65,3.08,1.4,1.62,2.79,3.24,4.17,4.87.42.49.84.98,1.25,1.47,1.49,1.75,2.97,3.51,4.45,5.28,1.14,1.36,2.28,2.72,3.4,4.08.69.83,1.38,1.66,2.07,2.5,1.04,1.25,2.07,2.51,3.09,3.77,1.29,1.56,2.57,3.13,3.83,4.71,1.7,2.08,3.38,4.18,5.06,6.28,1.13,1.41,2.25,2.83,3.37,4.25,1.1,1.39,2.2,2.79,3.3,4.19.5.63.99,1.27,1.49,1.91,1.43,1.83,2.85,3.66,4.26,5.5.62.79,1.23,1.59,1.84,2.4,1.28,1.66,2.55,3.33,3.81,5,.63.83,1.27,1.67,1.89,2.51,1.33,1.76,2.65,3.52,3.96,5.29.48.64.96,1.28,1.43,1.93,1.45,1.95,2.89,3.9,4.31,5.86.34.45.67.9.99,1.36,1.62,2.21,3.22,4.42,4.81,6.65.09.11.17.22.25.34,1.69,2.35,3.37,4.7,5.04,7.07.35.49.7.99,1.04,1.49,1.39,1.97,2.77,3.94,4.15,5.93,1.65,2.37,3.29,4.76,4.92,7.15.98,1.41,1.94,2.82,2.88,4.24,1.04,1.52,2.06,3.04,3.08,4.56.39.58.79,1.17,1.16,1.76,1.31,1.93,2.59,3.86,3.86,5.8.71,1.07,1.42,2.15,2.12,3.24,1.04,1.58,2.08,3.18,3.11,4.77.64.99,1.28,1.98,1.91,2.98,1.05,1.61,2.08,3.23,3.11,4.85.69,1.09,1.38,2.18,2.06,3.27,1.19,1.87,2.36,3.75,3.53,5.63,1.53,2.44,3.04,4.89,4.55,7.35.54.89,1.09,1.79,1.63,2.69,1.25,2.05,2.49,4.1,3.72,6.15,1.49,2.48,2.97,4.97,4.44,7.46.58.98,1.16,1.96,1.72,2.95,1.18,1.98,2.33,3.97,3.48,5.97,1.47,2.54,2.94,5.09,4.39,7.65,3.04,5.36,6.04,10.75,9,16.17.82,1.49,1.63,2.98,2.43,4.48.85,1.56,1.69,3.12,2.52,4.68.25.45.49.91.73,1.37,1.3,2.43,2.59,4.87,3.87,7.32,1.42,2.7,2.83,5.41,4.22,8.13,3.45,6.72,6.84,13.47,10.15,20.27.94,1.89,1.86,3.78,2.77,5.68,1.7,3.53,3.39,7.07,5.04,10.62,1.04,2.19,2.07,4.39,3.08,6.6,1.21,2.61,2.41,5.23,3.6,7.86,1.29,2.85,2.57,5.7,3.83,8.56,1.89,4.24,3.74,8.5,5.56,12.78.85,1.95,1.68,3.91,2.51,5.88,2.41,5.7,4.77,11.42,7.08,17.17.79,1.96,1.57,3.92,2.34,5.88.49,1.2.96,2.4,1.43,3.61,1.17,2.98,2.33,5.96,3.48,8.96,2.25,5.89,4.46,11.81,6.62,17.74.72,1.97,1.43,3.94,2.13,5.92,2.57,7.17,5.07,14.37,7.49,21.6,1.04,3.08,2.05,6.16,3.06,9.24,1.49,4.58-1.9,9.28-6.72,9.28Z"/>
        <path class="cls-6" d="M2619.65,1908.77s-.01.04-.02.06h-.01c-.6,1.28-1.23,2.55-1.85,3.82-.3.62-.61,1.24-.92,1.86-1.01,2.06-2.04,4.11-3.07,6.16-.09.19-.19.37-.28.56-.51,1.05-1.04,2.09-1.58,3.13-.9,1.8-1.81,3.59-2.74,5.38-.67,1.34-1.36,2.68-2.06,4.01-.75,1.45-1.5,2.9-2.26,4.34-.03.06-.07.13-.1.19-.72,1.4-1.45,2.78-2.19,4.17-.13.26-.27.52-.41.78-.57,1.09-1.15,2.17-1.73,3.25-1.08,2.05-7.81,14.19-8.93,16.23-.05.09-.09.17-.14.26-.45.85-.91,1.69-1.37,2.53-.13.25-.27.5-.4.74-.66,1.22-1.33,2.43-2,3.64-.04.07-.08.15-.12.22-.99,1.81-2,3.62-3,5.42-.66,1.19-1.32,2.37-2,3.55-.11.2-.23.41-.34.61-.77,1.37-1.54,2.74-2.32,4.1-.06.11-.12.22-.19.33-.67,1.19-1.34,2.37-2.03,3.55-.09.15-.17.31-.27.46-.91,1.62-1.84,3.23-2.79,4.84-.08.14-.16.27-.24.41-.03.05-.06.11-.09.16-.42.75-.85,1.49-1.3,2.23-1,1.73-2.02,3.46-3.05,5.18-.15.25-.29.49-.44.74-.59,1.02-1.19,2.03-1.81,3.05-.06.11-.13.21-.19.32-1.09,1.83-2.19,3.66-3.3,5.49-.55.92-1.1,1.84-1.67,2.76-1.07,1.75-2.14,3.5-3.22,5.25-.01.02-.02.03-.03.05-.64,1.06-1.3,2.11-1.95,3.16-.03.04-.05.09-.08.13-1.11,1.79-2.22,3.57-3.34,5.35-.12.19-.24.38-.36.57-.56.9-1.13,1.8-1.7,2.69-1.15,1.83-2.32,3.65-3.49,5.47-.28.44-.56.88-.84,1.31-.28.44-.56.88-.85,1.32-.12.19-.24.38-.37.57-1.45,2.26-2.92,4.51-4.39,6.76-.04.07-.09.14-.14.21-.01.02-.02.03-.03.05-1.81,2.77-3.64,5.52-5.48,8.27-1.6,2.4-3.21,4.79-4.84,7.17-.11.16-.22.33-.33.49-.24.37-.5.75-.76,1.12-.04.06-.09.13-.13.19-1.51,2.23-3.04,4.46-4.59,6.68-.31.45-.62.91-.94,1.36-1.81,2.61-3.64,5.22-5.48,7.82-1.65,2.35-3.32,4.69-5,7.02-.45.63-.91,1.27-1.37,1.91-1.36,1.89-2.73,3.77-4.1,5.65-.58.8-1.17,1.59-1.75,2.39-1.21,1.65-2.43,3.29-3.65,4.93-.92,1.25-1.84,2.49-2.78,3.73-1.02,1.37-2.05,2.74-3.09,4.1-.84,1.13-1.69,2.25-2.56,3.38-1.42,1.87-2.85,3.74-4.3,5.6-.55.73-1.12,1.47-1.69,2.2-1.09,1.41-2.18,2.82-3.29,4.22-.09.11-.18.23-.27.34-.98,1.27-1.97,2.53-2.97,3.79-.01.01-.02.02-.02.03-1.22,1.54-2.44,3.08-3.67,4.61-.07.09-.15.18-.22.27-.62.79-1.25,1.58-1.89,2.37-1.34,1.67-2.68,3.34-4.04,5-1.7,2.1-3.41,4.2-5.15,6.29-1.22,1.49-2.45,2.98-3.68,4.46-.17.21-.34.41-.51.62-.4.47-.79.93-1.18,1.4-1.74,2.09-3.5,4.17-5.25,6.24-.27.31-.53.63-.81.94-1.14,1.35-2.3,2.71-3.45,4.05-.79.92-1.57,1.83-2.36,2.74-.07.09-.15.17-.23.26-1.38,1.6-2.76,3.2-4.15,4.79-.71.81-1.41,1.61-2.12,2.41h0c-1.28,1.46-2.56,2.92-3.85,4.36-.85.96-1.7,1.92-2.56,2.88-1.92,2.15-3.85,4.3-5.79,6.43-2.09,2.31-4.19,4.61-6.3,6.89-.19.21-.38.42-.57.62-1.24,1.35-2.49,2.7-3.76,4.04-.1.11-.2.21-.3.32-1.18,1.27-2.37,2.54-3.56,3.81-1.98,2.11-3.97,4.22-5.97,6.31-.04.05-.09.09-.13.14-2.27,2.37-4.54,4.72-6.82,7.07-2.28,2.34-4.56,4.68-6.86,7-2.43,2.46-4.87,4.91-7.33,7.35-1.26,1.25-2.52,2.5-3.79,3.73-1.32,1.32-2.64,2.62-3.97,3.91-1.24,1.21-2.49,2.42-3.74,3.61-1.34,1.33-2.69,2.62-4.04,3.9-1.06,1.02-2.12,2.04-3.19,3.04-1.48,1.43-2.97,2.83-4.46,4.22-1.86,1.75-3.72,3.49-5.58,5.22-2.22,2.06-4.45,4.1-6.68,6.15-.37.33-.74.67-1.1,1-2.23,2.03-4.47,4.05-6.71,6.06-.87.78-1.74,1.56-2.62,2.34-1.72,1.54-3.45,3.07-5.18,4.59-2.51,2.21-5.02,4.4-7.55,6.59-2.52,2.18-5.06,4.36-7.6,6.52-1.78,1.51-3.55,3.01-5.34,4.5-1.05.9-2.11,1.78-3.17,2.66-2.28,1.91-4.57,3.8-6.87,5.69-2.58,2.12-5.17,4.23-7.77,6.32-2.6,2.1-5.21,4.19-7.83,6.26-2.62,2.08-5.25,4.14-7.89,6.19-2.63,2.06-5.28,4.1-7.94,6.13-2.33,1.78-4.66,3.55-7,5.31-.98.74-1.96,1.47-2.94,2.2-1.74,1.31-3.49,2.61-5.24,3.89-1.92,1.42-3.84,2.83-5.76,4.22-1.83,1.34-3.66,2.67-5.5,3.99-.1.07-.2.15-.3.22-1.69,1.22-3.37,2.43-5.07,3.64-.91.65-1.82,1.29-2.73,1.93-1.75,1.24-3.5,2.48-5.26,3.7-.13.09-.27.19-.4.28-.66.47-1.33.93-1.99,1.38-2.04,1.43-4.09,2.84-6.14,4.24-.62.43-1.24.86-1.86,1.27-.26.18-.53.36-.79.54-1.84,1.27-3.69,2.52-5.54,3.76-.14.1-.29.19-.43.29-.33.23-.66.45-1,.67-2.22,1.49-4.44,2.97-6.67,4.45-1.35.89-2.7,1.78-4.06,2.66-1.44.95-2.9,1.9-4.35,2.84-.33.21-.65.43-.98.64-1.36.87-2.72,1.75-4.08,2.62-.12.08-.25.16-.37.24-1.29.83-2.58,1.65-3.87,2.47-2.83,1.8-5.66,3.58-8.51,5.35-1.42.89-2.85,1.77-4.28,2.65-2.65,1.64-5.31,3.26-7.98,4.88-.51.31-1.03.63-1.55.94-2.56,1.54-5.13,3.08-7.7,4.61-.07.04-.15.09-.22.13-2.81,1.66-5.64,3.32-8.47,4.97-2.18,1.26-4.36,2.52-6.55,3.77-2.19,1.25-4.37,2.5-6.57,3.74-2.93,1.65-5.86,3.29-8.81,4.91-1.37.76-2.74,1.51-4.12,2.27-1.6.87-3.2,1.74-4.81,2.61-1.46.79-2.91,1.57-4.37,2.35-2.97,1.59-5.94,3.16-8.92,4.73-3.55,1.86-7.12,3.7-10.69,5.52-1.15.59-2.29,1.17-3.44,1.75-1.55.79-3.1,1.57-4.65,2.34-1.55.78-3.1,1.55-4.66,2.32-1.55.77-3.11,1.54-4.67,2.3-1.49.74-2.99,1.46-4.49,2.19s-3.01,1.45-4.51,2.17c-1.5.72-3.01,1.44-4.52,2.15-4.28,2.02-8.57,4.02-12.88,6-1.54.71-3.08,1.41-4.62,2.1-.71.32-1.41.64-2.11.96-.29.13-.59.26-.88.39-2.09.94-4.17,1.87-6.27,2.8-.19.08-.38.17-.57.25-1.53.67-3.06,1.35-4.59,2.01-2.02.88-4.04,1.76-6.07,2.63-1.43.61-2.86,1.23-4.3,1.84-10.39,4.41-20.87,8.68-31.42,12.8-2.87,1.12-5.75,2.23-8.64,3.32-3.46,1.32-6.94,2.63-10.42,3.91-1.58.59-3.18,1.17-4.77,1.75-3.2,1.17-6.41,2.33-9.63,3.47-1.61.57-3.21,1.13-4.82,1.69-1.61.57-3.22,1.13-4.83,1.68-1.42.49-2.84.98-4.27,1.46-1.32.45-2.65.9-3.97,1.34-.48.17-.97.33-1.45.49-1.62.54-3.24,1.08-4.86,1.61-1.37.46-2.74.9-4.12,1.35-1.45.47-2.89.95-4.35,1.41-.05.02-.11.03-.16.05-2.86.92-5.73,1.82-8.61,2.72-2.4.75-4.8,1.49-7.2,2.22-1.64.5-3.28,1-4.92,1.49-3.28.99-6.57,1.96-9.86,2.91-1.65.48-3.3.95-4.95,1.42-1.65.47-3.3.94-4.95,1.4-1.65.47-3.31.93-4.96,1.38-1.66.46-3.31.91-4.97,1.36-2.08.57-4.17,1.12-6.26,1.68-1.24.32-2.47.65-3.71.97-6.66,1.74-13.34,3.42-20.04,5.04-3.36.81-6.71,1.61-10.08,2.39-1.68.39-3.36.78-5.05,1.16-1.64.37-3.27.74-4.92,1.11-1.15.26-2.3.51-3.46.76-1.31.3-2.62.58-3.94.86-.96.21-1.92.42-2.88.62-1.69.36-3.38.72-5.08,1.07-1.69.36-3.39.71-5.09,1.05-1.77.36-3.54.72-5.32,1.07-3.24.65-6.49,1.28-9.74,1.9-.09.02-.17.03-.26.05-3.41.64-6.84,1.28-10.26,1.89-1.43.26-2.86.52-4.29.77-.28.05-.56.1-.84.15-2.43.43-4.87.84-7.3,1.25-2.72.46-5.44.91-8.17,1.35-1.56.26-3.12.51-4.69.75-3.61.57-7.22,1.12-10.84,1.65-1.63.24-3.26.48-4.89.72-.17.02-.34.04-.51.07-1.5.21-3.01.42-4.51.63-3.63.51-7.26.99-10.9,1.46-1.61.21-3.23.41-4.84.61-1.87.24-3.74.47-5.62.69-3,.36-6.01.71-9.03,1.04-.99.12-1.98.23-2.96.33-1.25.14-2.5.27-3.74.4-1.43.16-2.87.3-4.3.45-2.1.22-4.21.42-6.31.63-1.73.16-3.45.33-5.18.48-.97.09-1.93.18-2.9.26-1.2.12-2.39.22-3.59.32-1.74.15-3.48.3-5.22.44-1.38.11-2.77.23-4.15.33-1.76.14-3.53.27-5.29.4-1.77.13-3.54.26-5.31.38-.86.06-1.72.12-2.58.17-1.34.1-2.68.18-4.03.27-1.34.09-2.68.17-4.02.25-3.55.21-7.1.4-10.66.58-1.59.08-3.19.16-4.79.23-.49.03-.98.05-1.47.07-1.47.07-2.95.13-4.42.19-1.78.08-3.56.15-5.35.21-.58.02-1.16.04-1.73.06-1.36.05-2.72.1-4.08.14-2.6.08-5.21.16-7.82.22-2.6.07-5.22.12-7.83.17-1.2.02-2.4.04-3.6.06-2.99.05-5.97.08-8.97.1-2.99.03-5.99.04-8.99.04-2.57,0-5.14-.01-7.71-.03-.43,0-.85,0-1.27-.01-2.34-.01-4.67-.04-7-.07-.21,0-.41,0-.61-.01-2.41-.03-4.81-.07-7.22-.12-.93-.02-1.86-.04-2.79-.06-2.18-.05-4.35-.11-6.53-.17-2.54-.07-5.08-.15-7.61-.24-.59-.02-1.18-.04-1.76-.06-2.37-.09-4.74-.18-7.1-.28-2.74-.12-5.48-.24-8.22-.38-1.93-.09-3.85-.19-5.78-.3-.81-.04-1.61-.08-2.42-.13-.28-.02-.56-.03-.84-.05-1.43-.08-2.87-.16-4.3-.25-.37-.02-.74-.05-1.11-.07-3.96-.24-7.91-.51-11.86-.8-1.91-.13-3.81-.28-5.71-.42-2.04-.16-4.08-.32-6.11-.49-3.19-.26-6.37-.54-9.56-.83-.78-.07-1.56-.14-2.34-.22-2.06-.18-4.12-.38-6.17-.58-3.2-.31-6.4-.64-9.6-.99-2.62-.27-5.24-.56-7.86-.86-.05,0-.1,0-.16-.02-2.85-.32-5.71-.66-8.56-1-.11-.02-.22-.03-.32-.04-2.16-.27-4.31-.53-6.46-.81-1.09-.14-2.18-.28-3.27-.43-2.35-.3-4.69-.61-7.03-.93-.21-.03-.42-.06-.63-.09-2.91-.39-5.81-.8-8.72-1.23-2.71-.39-5.42-.79-8.13-1.21-.36-.05-.71-.1-1.06-.16-2.73-.42-5.46-.84-8.18-1.28-1.34-.21-2.67-.43-4.01-.65-.7-.11-1.4-.23-2.1-.35-2.15-.35-4.3-.71-6.44-1.08-2.14-.37-4.28-.75-6.42-1.13-.1-.02-.2-.04-.3-.05-2.01-.36-4.02-.72-6.03-1.09-6.33-1.16-12.63-2.37-18.92-3.64-3.35-.67-6.7-1.36-10.04-2.06-1.79-.38-3.58-.75-5.36-1.14-1.67-.36-3.34-.72-5.01-1.09-1.52-.33-3.04-.67-4.56-1.01-1.37-.31-2.74-.62-4.1-.93-2.11-.48-4.22-.97-6.32-1.46-3.19-.75-6.37-1.51-9.55-2.28-.13-.03-.26-.06-.39-.09-3.17-.78-6.34-1.56-9.51-2.36-1.64-.42-3.29-.84-4.93-1.26-1.57-.41-3.14-.81-4.71-1.22-1.85-.49-3.71-.98-5.56-1.47-2.39-.64-4.77-1.29-7.15-1.94-2.38-.65-4.76-1.31-7.13-1.98-3.26-.92-6.51-1.85-9.75-2.79-3.25-.94-6.49-1.9-9.73-2.87-.15-.05-.31-.1-.47-.14-3.08-.93-6.15-1.87-9.21-2.82-1.62-.5-3.23-1-4.83-1.51-1.61-.51-3.22-1.02-4.82-1.53-3.39-1.08-6.76-2.18-10.13-3.29-1.51-.5-3.03-1-4.54-1.51-1.51-.51-3.02-1.01-4.53-1.53-1.59-.54-3.18-1.08-4.77-1.63-1.77-.61-3.54-1.22-5.3-1.84-3-1.05-5.98-2.11-8.97-3.18-1.58-.57-3.15-1.14-4.73-1.71-5.92-2.15-11.81-4.36-17.68-6.61-1.96-.75-3.91-1.5-5.86-2.26-1.56-.61-3.12-1.22-4.67-1.83-1.4-.55-2.8-1.11-4.19-1.66-.36-.14-.72-.29-1.08-.43-2.91-1.17-5.81-2.35-8.71-3.53-1.54-.63-3.09-1.27-4.63-1.91-1.52-.63-3.02-1.26-4.53-1.89-.24-.1-.48-.2-.72-.3-2.73-1.15-5.46-2.31-8.18-3.48-.35-.15-.7-.3-1.05-.45-2.84-1.23-5.68-2.46-8.51-3.71-3.06-1.35-6.12-2.71-9.16-4.09-3.05-1.37-6.1-2.76-9.13-4.16-1.34-.62-2.68-1.24-4.02-1.87-1.9-.89-3.8-1.78-5.7-2.68-1.51-.71-3.02-1.43-4.52-2.15-1.27-.61-2.55-1.22-3.83-1.84-1.5-.72-2.99-1.45-4.49-2.18-.23-.11-.45-.22-.68-.33-2.61-1.28-5.21-2.56-7.81-3.86-1.87-.93-3.74-1.87-5.61-2.82-1.49-.75-2.97-1.5-4.45-2.26-2.26-1.15-4.52-2.32-6.77-3.49-.01,0-.03-.01-.04-.02-2.77-1.44-5.54-2.89-8.3-4.35-.03-.02-.06-.04-.1-.06-2.3-1.21-4.59-2.44-6.88-3.67-.6-.32-1.19-.64-1.79-.97-2.33-1.26-4.65-2.53-6.97-3.8-.31-.17-.62-.34-.92-.51-2.6-1.43-5.2-2.87-7.79-4.33-.15-.08-.3-.17-.46-.26-2.74-1.54-5.47-3.09-8.2-4.65-1.44-.82-2.88-1.65-4.31-2.48-1.18-.68-2.36-1.37-3.54-2.06-1.43-.83-2.86-1.67-4.29-2.51-1.82-1.07-3.63-2.15-5.44-3.23-1.81-1.08-3.62-2.16-5.43-3.26-1.8-1.09-3.6-2.18-5.4-3.28-1.8-1.1-3.6-2.21-5.39-3.32-.13-.07-.25-.15-.38-.23-1.66-1.03-3.33-2.07-4.99-3.11-1.78-1.12-3.56-2.24-5.34-3.37-1.33-.84-2.65-1.69-3.97-2.53-2.23-1.42-4.45-2.86-6.67-4.3-2.76-1.79-5.51-3.59-8.25-5.4-.02-.01-.03-.02-.05-.04-2.46-1.63-4.91-3.27-7.36-4.92-.67-.45-1.35-.9-2.02-1.36-1.82-1.23-3.65-2.47-5.46-3.72-2.99-2.04-5.96-4.1-8.93-6.17-.89-.62-1.78-1.25-2.67-1.87-1.81-1.27-3.62-2.55-5.42-3.83-1.75-1.25-3.5-2.5-5.24-3.76-.63-.45-1.27-.9-1.9-1.36-1.73-1.25-3.46-2.51-5.19-3.79-1.52-1.1-3.04-2.21-4.55-3.33-2.07-1.53-4.13-3.06-6.19-4.61-1.53-1.15-3.06-2.3-4.59-3.46-.15-.11-.3-.23-.45-.34-1.52-1.14-3.02-2.29-4.53-3.44-.27-.21-.53-.41-.8-.62-.13-.1-.26-.2-.39-.3-2.22-1.7-4.44-3.41-6.65-5.14-4.94-3.85-9.84-7.73-14.71-11.66-.73-.59-1.46-1.18-2.19-1.77-1.6-1.29-3.19-2.58-4.77-3.88-.24-.19-.47-.39-.71-.58-.71-.58-1.42-1.17-2.13-1.75-1.39-1.14-2.77-2.28-4.14-3.43-1.66-1.37-3.31-2.75-4.95-4.15l-.18-.15c-1.47-1.23-2.94-2.47-4.4-3.71-.05-.05-.11-.09-.16-.14-2.25-1.91-4.49-3.83-6.72-5.76-1.26-1.08-2.52-2.17-3.77-3.28-.03-.03-.07-.06-.1-.09-1.5-1.29-3-2.6-4.49-3.92-2.48-2.18-4.94-4.37-7.4-6.57-2.12-1.89-4.22-3.79-6.32-5.71-.69-.62-1.39-1.26-2.08-1.89-2.08-1.9-4.16-3.8-6.22-5.72-2.15-1.99-4.28-3.98-6.41-5.98-.37-.35-.75-.7-1.12-1.06-1.48-1.4-2.96-2.8-4.44-4.22-.81-.76-1.62-1.54-2.42-2.31-.47-.45-.95-.91-1.42-1.37-1.9-1.82-3.8-3.66-5.69-5.51-2.1-2.05-4.2-4.1-6.28-6.17-.64-.63-1.29-1.27-1.93-1.93-1.74-1.72-3.46-3.44-5.18-5.18-.31-.3-.61-.6-.91-.91-1.65-1.67-3.3-3.35-4.94-5.03-.34-.34-.67-.68-1-1.02-.77-.78-1.53-1.57-2.29-2.36-.84-.86-1.66-1.72-2.49-2.58-1.52-1.55-3.01-3.11-4.48-4.67-1.73-1.8-3.44-3.61-5.14-5.42-2.21-2.35-4.41-4.71-6.6-7.07-.32-.34-.64-.68-.94-1.02-1.94-2.1-3.87-4.2-5.79-6.31-.25-.27-.49-.54-.73-.81-.08-.08-.15-.17-.22-.25-1.94-2.13-3.86-4.27-5.78-6.41-2.2-2.46-4.38-4.93-6.56-7.4-2.18-2.48-4.34-4.97-6.5-7.46-2.16-2.5-4.3-5-6.44-7.52-2.13-2.51-4.25-5.04-6.37-7.57-4.22-5.06-8.41-10.17-12.55-15.31-1.94-2.4-3.87-4.82-5.79-7.24-.52-.65-1.03-1.3-1.54-1.96-1.16-1.46-2.31-2.92-3.45-4.39-1.04-1.33-2.08-2.67-3.11-4.01-1.49-1.91-2.97-3.84-4.45-5.77-1.98-2.59-3.96-5.2-5.92-7.81-.15-.2-.3-.39-.44-.59-1.81-2.42-3.62-4.85-5.41-7.28-.27-.35-.53-.71-.78-1.06-1.68-2.27-3.34-4.56-5-6.84-.23-.31-.45-.62-.67-.93-3.4-4.69-6.76-9.41-10.08-14.15-.12-.17-.24-.34-.36-.52-.98-1.4-1.96-2.8-2.92-4.2-1.05-1.5-2.09-3.02-3.13-4.53-.27-.39-.53-.78-.79-1.16-1.65-2.41-3.29-4.82-4.93-7.25-.05-.08-.1-.15-.15-.23-1.8-2.68-3.6-5.37-5.38-8.08-1.73-2.61-3.45-5.24-5.16-7.87-.09-.14-.19-.28-.28-.43-.38-.59-.77-1.19-1.14-1.78-.05-.07-.09-.13-.13-.2-.06-.09-.12-.19-.18-.28-1.24-1.9-2.46-3.81-3.68-5.72-.08-.13-.16-.25-.24-.38-1.6-2.51-3.19-5.03-4.76-7.56-.81-1.29-1.61-2.58-2.41-3.87-1.05-1.69-2.1-3.38-3.13-5.07-.07-.12-.15-.24-.22-.36-1.47-2.4-2.94-4.81-4.38-7.22-.09-.14-.17-.27-.25-.41-.73-1.21-1.46-2.41-2.16-3.62-1.16-1.93-2.31-3.87-3.45-5.81-1.5-2.53-2.98-5.07-4.45-7.61-.8-1.37-1.59-2.75-2.37-4.13-1-1.74-2-3.48-2.99-5.23-1.51-2.67-3.01-5.35-4.5-8.03-.23-.41-.45-.81-.68-1.22-.65-1.18-1.3-2.37-1.95-3.56-.66-1.18-1.31-2.38-1.96-3.57-.12-.22-.24-.45-.36-.67-.48-.86-.95-1.73-1.4-2.59-.06-.1-.11-.19-.16-.29-1.1-2.03-7.38-14.16-8.47-16.2-1.43-2.69-2.85-5.38-4.26-8.08-.87-1.66-1.74-3.33-2.59-5-.8-1.53-1.59-3.07-2.37-4.62-.36-.68-.71-1.37-1.05-2.06-1.19-2.33-2.37-4.67-3.54-7.02-.25-.49-.5-.99-.74-1.49-.53-1.05-1.05-2.11-1.57-3.17s-1.04-2.12-1.56-3.18h0c-.24-.48-.47-.95-.7-1.42-3.24-6.62,1.61-14.34,8.98-14.34h208.7c8.44,0,16.28,4.35,20.78,11.5.39.61.77,1.21,1.17,1.82.25.4.51.81.77,1.21,1.09,1.74,2.2,3.46,3.31,5.18,190.09,302.77,532.14,514.13,916.01,514.13s693.3-185.26,886.95-467.66c2.95-4.17,11.5-18.46,14.39-22.68.7-1.02,1.4-2.05,2.09-3.08,1.09-1.59,2.17-3.18,3.24-4.78.11-.15.21-.31.31-.46,1.53-2.27,3.05-4.55,4.56-6.84,1.18-1.78,2.36-3.57,3.52-5.36,3.05-4.65,6.05-9.34,9.02-14.04.14,1.49-.07,3.05-.69,4.57Z"/>
        <path class="cls-5" d="M929.53,628.44c-2,33.37-1.86,67.68.41,102.56-6.22,5.89-12.36,11.86-18.41,17.91-42.68,42.69-81.43,89.65-115.16,139.57-34.02,50.36-63.23,104.17-86.82,159.95-.71,1.67-1.41,3.34-2.1,5.02-.03.07-.06.14-.09.21-.42.98-.82,1.96-1.23,2.94-2.59,6.3-8.71,10.42-15.51,10.42h-198.02c-5.86,0-10.22-5.04-9.79-10.55.27-7.71,20.44-57.88,22.35-62.73.64-1.62,1.27-3.23,1.92-4.84,1.18-2.96,2.37-5.92,3.59-8.87.64-1.58,1.29-3.15,1.95-4.72,3.44-8.28,6.99-16.5,10.65-24.67,1.41-3.16,2.84-6.31,4.28-9.45,2.49-5.44,5.03-10.85,7.63-16.23.76-1.57,1.52-3.15,2.27-4.72.78-1.59,1.56-3.19,2.35-4.78.37-.76.75-1.51,1.13-2.27,1.11-2.25,2.24-4.5,3.38-6.75.75-1.5,1.52-2.99,2.28-4.49.87-1.7,1.75-3.4,2.63-5.1.77-1.48,1.54-2.95,2.31-4.42,4.76-9.06,9.65-18.04,14.67-26.94l1.47-2.61c2.63-4.63,5.29-9.23,7.98-13.81.8-1.35,1.59-2.7,2.4-4.04,1.12-1.89,2.25-3.78,3.38-5.66,1.43-2.38,2.88-4.75,4.33-7.11,1.02-1.65,2.04-3.3,3.06-4.95.18-.29.36-.59.55-.88,1.13-1.81,2.27-3.62,3.41-5.43.66-1.04,1.32-2.08,1.98-3.12,1.63-2.55,3.26-5.1,4.91-7.63,1.64-2.54,3.3-5.06,4.97-7.57.37-.58.76-1.16,1.15-1.74,1.2-1.82,2.42-3.64,3.65-5.45.23-.36.47-.71.72-1.06,1.36-2.02,2.73-4.03,4.11-6.04,1.55-2.27,3.12-4.53,4.7-6.79.84-1.2,1.68-2.4,2.52-3.59.63-.9,1.26-1.79,1.9-2.68,1.53-2.17,3.08-4.33,4.63-6.48.01-.02.03-.04.04-.06.97-1.34,1.94-2.68,2.92-4.01,1.11-1.55,2.24-3.09,3.38-4.62l1.35-1.83c1.05-1.43,2.12-2.86,3.2-4.29.31-.43.63-.85.96-1.28.58-.78,1.16-1.56,1.75-2.33,2.35-3.13,4.72-6.24,7.13-9.33,1.11-1.44,2.22-2.87,3.34-4.31,3.22-4.12,6.47-8.21,9.76-12.28.95-1.19,1.91-2.37,2.87-3.55,1.14-1.42,2.3-2.83,3.47-4.23.95-1.17,1.91-2.33,2.88-3.49.89-1.09,1.8-2.18,2.72-3.26,1.22-1.48,2.47-2.96,3.72-4.43.21-.25.42-.51.65-.76.44-.52.88-1.04,1.32-1.56,1.44-1.7,2.89-3.39,4.35-5.08t.01-.01c.65-.76,1.29-1.51,1.95-2.26,1.68-1.94,3.37-3.87,5.07-5.79,1.04-1.2,2.1-2.38,3.16-3.57,3.26-3.68,6.56-7.34,9.89-10.97.66-.72,1.31-1.44,1.98-2.16.77-.85,1.55-1.69,2.34-2.53.9-.99,1.82-1.97,2.74-2.95.86-.93,1.73-1.86,2.61-2.78,1.59-1.7,3.19-3.4,4.81-5.09.27-.29.55-.58.83-.87,1.57-1.65,3.15-3.29,4.74-4.92.05-.07.12-.14.2-.21.85-.89,1.72-1.78,2.59-2.67.86-.89,1.73-1.78,2.61-2.66.2-.21.41-.42.61-.63.1-.11.21-.21.32-.32.31-.32.62-.63.94-.94.08-.1.18-.2.28-.29.63-.65,1.27-1.29,1.91-1.93,1.81-1.84,3.63-3.65,5.46-5.46.63-.62,1.26-1.25,1.89-1.87,1.86-1.84,3.73-3.68,5.61-5.49.84-.83,1.69-1.65,2.54-2.45.16-.17.31-.32.47-.46,1.31-1.28,2.63-2.54,3.95-3.79,1.34-1.29,2.68-2.56,4.03-3.82,1.02-.97,2.04-1.93,3.06-2.88,1.22-1.15,2.45-2.3,3.68-3.42,1.41-1.32,2.82-2.62,4.24-3.92.01,0,.02-.02.03-.02.72-.67,1.44-1.33,2.17-1.98.09-.09.18-.18.28-.25,1.65-1.52,3.31-3.03,4.98-4.52,1.04-.94,2.09-1.88,3.14-2.8,1.46-1.32,2.93-2.62,4.4-3.91.81-.72,1.63-1.44,2.45-2.14,1.63-1.45,3.27-2.87,4.92-4.29.01-.02.03-.03.04-.04.88-.76,1.76-1.52,2.64-2.27.19-.17.37-.33.56-.48,1.11-.96,2.22-1.91,3.33-2.84.24-.21.47-.41.71-.6.6-.52,1.2-1.04,1.81-1.54.62-.53,1.24-1.06,1.86-1.57,1.41-1.19,2.83-2.38,4.25-3.55,1.18-1,2.37-1.98,3.56-2.94,1.4-1.17,2.81-2.33,4.22-3.47.78-.65,1.57-1.28,2.35-1.91,2.03-1.65,4.07-3.29,6.11-4.91.43-.36.86-.7,1.29-1.04,1.84-1.46,3.69-2.92,5.54-4.36,1.41-1.12,2.83-2.23,4.25-3.32,1.11-.87,2.23-1.74,3.35-2.59,1.69-1.31,3.4-2.62,5.11-3.9,1.03-.8,2.07-1.58,3.11-2.36,6.03-4.56,12.12-9.04,18.27-13.46,1.16-.85,2.33-1.68,3.51-2.52.88-.63,1.77-1.26,2.66-1.89.72-.52,1.45-1.03,2.18-1.54,1.43-1.02,2.86-2.02,4.3-3.02,1.3-.91,2.61-1.81,3.91-2.71,2.2-1.52,4.41-3.03,6.62-4.53,14.47-9.83,29.21-19.3,44.2-28.4,2.02-1.22,4.05-2.45,6.08-3.66,2.15-1.29,4.31-2.57,6.48-3.84,1.44-.85,2.88-1.69,4.33-2.53,1.15-.67,2.29-1.33,3.44-1.99,1.69-.98,3.39-1.95,5.09-2.91-14.29,48.38-23.13,100.02-26.35,154Z"/>
        <path class="cls-3" d="M2434.97,1023.83c-21.5-47.02-47-92.43-75.99-135.35-33.73-49.92-72.48-96.88-115.16-139.57-42.68-42.68-89.64-81.42-139.57-115.15-50.35-34.02-104.17-63.23-159.94-86.82-56.76-24.01-116.16-42.45-176.55-54.81-62.08-12.7-126.03-19.14-190.08-19.14-4.01,0-8.01.02-12.01.07-7.31.1-14.61.28-21.91.54-.7.03-1.4.04-2.09.07-11.75.44-23.48,1.1-35.18,1.98-.25,0-.49.03-.74.05-35.4,2.67-70.56,7.3-105.18,13.88,5.5-29.03,9.24-58.98,11.18-89.68,1.21-19.13,1.72-38.57,1.54-58.24,1.37-.07,2.73-.13,4.1-.19,1.39-.07,2.77-.13,4.16-.18,1.9-.08,3.81-.15,5.72-.22,3.36-.12,6.71-.22,10.07-.31,1.12-.03,2.24-.06,3.36-.08,1.19-.03,2.39-.05,3.58-.08,1.76-.03,3.53-.06,5.29-.08,1.22-.02,2.45-.04,3.67-.05,3.72-.04,7.44-.06,11.17-.06,447.34,0,828.11,285.05,970.56,683.42Z"/>
        <path class="cls-2" d="M2620.34,1904.2c-2.97,4.7-5.97,9.39-9.02,14.04-1.16,1.79-2.34,3.58-3.52,5.36-1.51,2.29-3.03,4.57-4.56,6.84-.1.15-.2.31-.31.46-1.07,1.6-2.15,3.19-3.24,4.78-.69,1.03-1.39,2.06-2.09,3.08-2.89,4.22-11.44,18.51-14.39,22.68-193.65,282.4-518.67,467.66-886.95,467.66s-725.92-211.36-916.01-514.13c3.58,5.56,7.23,11.08,10.93,16.56,22.14,32.77,51.62,74.35,77.77,104.19t.02.02c13.69,15.62,27.9,30.8,42.56,45.46,42.68,42.69,89.64,81.43,139.57,115.16,50.35,34.02,104.17,63.23,159.94,86.82,56.76,24.01,116.16,42.45,176.55,54.81,62.08,12.7,126.03,19.14,190.09,19.14,32.02,0,64.02-1.61,95.78-4.81,7.83-.79,15.64-1.67,23.44-2.66,23.82-2.99,47.47-6.89,70.86-11.67,15.31-3.13,30.55-6.66,45.71-10.57.17-.05.35-.09.52-.14.18-.04.35-.09.53-.14,3.12-.81,6.25-1.62,9.37-2.47h.01c.76-.2,1.51-.42,2.27-.63.15-.04.3-.08.45-.12,10.61-2.9,21.18-5.99,31.69-9.26,1.2-.38,2.4-.76,3.6-1.14.24-.07.47-.15.7-.22.2-.06.45-.14.72-.22.16-.05.34-.11.52-.16.49-.15,1.01-.31,1.5-.46.1-.03.19-.06.29-.09.38-.12.74-.23,1.03-.33.08-.03.14-.05.21-.07l.99-.34c1.92-.62,3.83-1.26,5.74-1.89.03-.01.06-.02.1-.03,10.28-3.4,20.5-6.98,30.65-10.73,1.16-.44,2.33-.86,3.49-1.3.06-.02.11-.04.16-.06.98-.37,1.97-.73,2.95-1.1h.02c2.68-1.02,5.35-2.05,8.02-3.09.08-.03.15-.06.23-.09,1.25-.49,2.51-.98,3.76-1.47,2.35-.93,4.7-1.87,7.05-2.81.04-.02.09-.04.13-.05.67-.28,1.35-.54,2.03-.82.42-.17.83-.35,1.25-.52,3-1.22,6-2.45,8.99-3.71.63-.25,1.25-.52,1.87-.78,55.77-23.59,109.59-52.8,159.94-86.82,49.93-33.73,96.89-72.47,139.57-115.16,42.68-42.68,87.06-99.74,120.79-149.67,2.29-3.38,4.55-6.78,6.79-10.2.72-1.09,1.43-2.18,2.14-3.27,2.71-4.16,5.39-8.35,8.03-12.55,4-6.37,10.98-10.25,18.5-10.25h210.47c5.36,0,9.35,4.14,9.8,8.94Z"/>
      </g>
      <path class="cls-4" d="M1377.3,342.07c.27,52.19-4.31,108.44-17.1,165.44-5.54,24.77-12.64,49.69-21.56,74.48-89.67,249.12-329.39,390.96-329.39,390.96,0,0-42.18-114.91-44.85-264.78-1.37-76.79,7.64-162.78,38.02-247.19,1.95-5.43,3.97-10.79,6.08-16.11h0c6.44-16.39,13.52-32.27,21.13-47.65,103.5-209.29,304.33-326.42,304.33-326.42,0,0,30.8,85.53,40.48,205.34,1.7,21.02,2.75,43.1,2.87,65.95Z"/>
    </g>
  </g>
</svg>